<?xml version="1.0" encoding="UTF-8"?>
<svg viewBox="0 0 744.09447 1052.362179" xmlns="http://www.w3.org/2000/svg">
 <path d="m676.76 382.14c1.4173 0 2.8538 0.17692 3.5625 0.53125 1.4173 0.70866 2.8226 2.1452 3.5312 3.5625s0.70867 2.1139 0 3.5312-3.5312 2.8226-3.5312 3.5312c0 1.4173 2.1139 3.5625 3.5312 3.5625h14.188v14.156c1e-5 1.4173 2.1139 3.5625 3.5312 3.5625 0.70865 0 2.1139-2.8538 3.5312-3.5625s2.1452-0.70866 3.5625 0 2.8226 2.1452 3.5312 3.5625 0.70866 5.6764 0 7.0938-2.1139 2.8226-3.5312 3.5312-2.1452 0.70866-3.5625 0-2.8226-3.5312-3.5312-3.5312c-1.4173 1e-5 -3.5312 2.1139-3.5312 3.5312v14.156h-14.188c-1.4173 1e-5 -3.5312 2.1452-3.5312 3.5625 0 0.70866 2.8226 2.1139 3.5312 3.5312s0.70867 2.1452 0 3.5625-2.1139 2.8226-3.5312 3.5312-5.6764 0.70866-7.0938 0-2.8226-2.1139-3.5312-3.5312-0.70866-2.1452 0-3.5625 3.5312-2.8226 3.5312-3.5312c-1e-5 -1.4173-2.1139-3.5625-3.5312-3.5625h-14.188v-14.156c0-1.4173 2.1139-3.5312 3.5312-3.5312 0.70866 0 2.1452 2.8226 3.5625 3.5312s2.1139 0.70866 3.5312 0 2.8538-2.1139 3.5625-3.5312 0.70867-5.6764 0-7.0938-2.1452-2.8538-3.5625-3.5625-2.1139-0.70865-3.5312 0-2.8538 3.5625-3.5625 3.5625c-1.4173 0-3.5313-2.1452-3.5312-3.5625v-14.156h14.188c1.4173 0 3.5312-2.1452 3.5312-3.5625-1e-5 -0.70866-2.8226-2.1139-3.5312-3.5312s-0.70866-2.1139 0-3.5312 2.1139-2.8538 3.5312-3.5625c0.70865-0.35433 2.1139-0.53125 3.5312-0.53125z" fill-rule="evenodd" stroke="#000" stroke-width="1.25"/>
 <path d="m676.77 647.89c-1.4173 0-2.8351 0.17692-3.5438 0.53125-1.4173 0.70866-2.8351 2.1264-3.5438 3.5438s-0.70867 2.1264 0 3.5438 3.5438 2.8351 3.5438 3.5438c0 1.4173-2.1264 3.5438-3.5438 3.5438h-14.169v14.175c0 1.4173-2.1264 3.5438-3.5438 3.5438-0.70866 0-2.1264-2.8351-3.5438-3.5438s-2.1264-0.70866-3.5438 0-2.8351 2.1264-3.5438 3.5438-0.70866 5.6702 0 7.0875 2.1264 2.8288 3.5438 3.5375 2.1264 0.70866 3.5438 0 2.8351-3.5375 3.5438-3.5375c1.4173 0 3.5438 2.1202 3.5438 3.5375v14.175h14.169c1.4173 0 3.5438 2.1264 3.5438 3.5438 0 0.70866-2.8351 2.1264-3.5438 3.5438s-0.70867 2.1264 0 3.5438 2.1264 2.8351 3.5438 3.5438 5.6702 0.70866 7.0875 0 2.8351-2.1264 3.5438-3.5438 0.70866-2.1264 0-3.5438-3.5438-2.8351-3.5438-3.5438c0-1.4173 2.1264-3.5438 3.5438-3.5438h14.175v-14.175c0-1.4173 2.1264-3.5375 3.5438-3.5375 0.70866 0 2.1264 2.8288 3.5438 3.5375s2.1202 0.70866 3.5375 0 2.8351-2.1202 3.5438-3.5375 0.70866-5.6702 0-7.0875-2.1264-2.8351-3.5438-3.5438-2.1202-0.70866-3.5375 0-2.8351 3.5438-3.5438 3.5438c-1.4173 0-3.5438-2.1264-3.5438-3.5438v-14.175h-14.175c-1.4173 0-3.5438-2.1264-3.5438-3.5438 0-0.70866 2.8351-2.1264 3.5438-3.5438s0.70866-2.1264 0-3.5438-2.1264-2.8351-3.5438-3.5438c-0.70866-0.35433-2.1264-0.53125-3.5438-0.53125z" fill-rule="evenodd" stroke="#000" stroke-width="1.25"/>
 <path d="m588.21 382.15c1.4191 0 2.8538 0.17692 3.5625 0.53125 1.4173 0.70866 2.8226 2.1139 3.5312 3.5312s0.70866 2.1452 0 3.5625-3.5312 2.8226-3.5312 3.5312c2e-5 1.4173 2.1139 3.5312 3.5312 3.5312h14.156v14.188c2e-5 1.4173 2.1452 3.5312 3.5625 3.5312 0.70867 1e-5 2.1139-2.8226 3.5312-3.5312s2.1452-0.70867 3.5625 0 2.8226 2.1139 3.5312 3.5312 0.70866 5.6764 0 7.0938-2.1139 2.8226-3.5312 3.5312-2.1452 0.70866-3.5625 0-2.8226-3.5312-3.5312-3.5312c-1.4173 2e-5 -3.5625 2.1139-3.5625 3.5312v14.188h-14.156c-1.4173 1e-5 -3.5312-2.1139-3.5312-3.5312 1e-5 -0.70865 2.8226-2.1452 3.5312-3.5625s0.70866-2.1139 0-3.5312-2.1139-2.8538-3.5312-3.5625-5.6764-0.70867-7.0938 0-2.8538 2.1452-3.5625 3.5625-0.70865 2.1139 0 3.5312 3.5625 2.8538 3.5625 3.5625c1e-5 1.4173-2.1452 3.5313-3.5625 3.5312h-14.156v-14.188c0-0.0321-0.02908-0.06096-0.03125-0.09375 0.08853-1.4149 2.1755-3.4375 3.5625-3.4375 0.70866 0 2.1139 2.8226 3.5312 3.5312s2.1452 0.70866 3.5625 0 2.8226-2.1139 3.5312-3.5312 0.70868-5.6764 0-7.0938-2.1139-2.8226-3.5312-3.5312-2.1452-0.70865-3.5625 0-2.8226 3.5313-3.5312 3.5312c-1.3886 0-3.4784-2.0224-3.5625-3.4375 0.00194-0.03094 0.03125-0.06342 0.03125-0.09375v-14.188h14.156c1.4173-1e-5 3.5625-2.1139 3.5625-3.5312 1e-5 -0.70865-2.8538-2.1139-3.5625-3.5312s-0.70866-2.1452 0-3.5625 2.1452-2.8226 3.5625-3.5312c0.70867-0.35433 2.1121-0.53125 3.5312-0.53125z" fill-rule="evenodd" stroke="#000" stroke-width="1.25"/>
 <path d="m322.43 382.12c-1.4191 0-2.8226 0.17692-3.5312 0.53125-1.4173 0.70866-2.8226 2.1139-3.5312 3.5312s-0.70866 2.1452 0 3.5625 3.5312 2.8226 3.5312 3.5312c-2e-5 1.4173-2.1139 3.5625-3.5312 3.5625h-14.188v14.156c-1e-5 1.4173 2.1139 3.5312 3.5312 3.5312 0.70865 0 2.1452-2.8226 3.5625-3.5312s2.1139-0.70866 3.5312 0 2.8538 2.1139 3.5625 3.5312 0.70867 5.6764 0 7.0938-2.1452 2.8538-3.5625 3.5625-2.1139 0.70865-3.5312 0-2.8538-3.5625-3.5625-3.5625c-1.4173 0-3.5313 2.1452-3.5312 3.5625v14.156h14.188c0.0321 1e-5 0.06096 0.02908 0.09375 0.03125 1.4149-0.08852 3.4375-2.1755 3.4375-3.5625 0-0.70865-2.8226-2.1139-3.5312-3.5312s-0.70866-2.1452 0-3.5625 2.1139-2.8226 3.5312-3.5312 5.6764-0.70868 7.0938 0 2.8226 2.1139 3.5312 3.5312 0.70865 2.1452 0 3.5625-3.5313 2.8226-3.5312 3.5312c0 1.3886 2.0224 3.4784 3.4375 3.5625 0.03094-0.00193 0.06342-0.03125 0.09375-0.03125h14.156v-14.156c0-1.4173-2.1139-3.5625-3.5312-3.5625-0.70864 0-2.1139 2.8538-3.5312 3.5625s-2.1452 0.70866-3.5625 0-2.8226-2.1452-3.5312-3.5625c-0.35432-0.70866-0.53125-2.1121-0.53125-3.5312s0.17692-2.8538 0.53125-3.5625c0.70867-1.4173 2.1139-2.8226 3.5312-3.5312s2.1452-0.70866 3.5625 0 2.8226 3.5312 3.5312 3.5312c1.4173-1e-5 3.5312-2.1139 3.5312-3.5312v-14.156h-14.156c-1.4173-1e-5 -3.5312-2.1452-3.5312-3.5625-1e-5 -0.70866 2.8226-2.1139 3.5312-3.5312s0.70867-2.1452 0-3.5625-2.1139-2.8226-3.5312-3.5312c-0.70866-0.35433-2.1434-0.53125-3.5625-0.53125z" fill-rule="evenodd" stroke="#000" stroke-width="1.25"/>
 <path d="m212.63 308.27v14.188c-2e-5 0.03209-0.02908 0.06096-0.03125 0.09375 0.08851 1.4149 2.1755 3.4375 3.5625 3.4375 0.70864-1e-5 2.1139-2.8226 3.5312-3.5312s2.1452-0.70866 3.5625 0 2.8226 2.1139 3.5312 3.5312 0.70868 5.6764 0 7.0938-2.1139 2.8226-3.5312 3.5312-2.1452 0.70865-3.5625 0-2.8226-3.5313-3.5312-3.5312c-1.3886-1e-5 -3.4784 2.0224-3.5625 3.4375 0.00192 0.03093 0.03125 0.06342 0.03125 0.09375v14.156h14.156c1.4173-1e-5 3.5625-2.1139 3.5625-3.5312-1e-5 -0.70865-2.8538-2.1139-3.5625-3.5312s-0.70866-2.1452 0-3.5625 2.1452-2.8226 3.5625-3.5312c0.70865-0.35433 2.1121-0.53125 3.5312-0.53125s2.8538 0.17692 3.5625 0.53125c1.4173 0.70866 2.8226 2.1139 3.5312 3.5312s0.70866 2.1452 0 3.5625-3.5312 2.8226-3.5312 3.5312c0 1.4173 2.1139 3.5312 3.5312 3.5312h14.156v-14.156c0-1.4173-2.1452-3.5312-3.5625-3.5312-0.70865 0-2.1139 2.8226-3.5312 3.5312s-2.1452 0.70867-3.5625 0-2.8226-2.1139-3.5312-3.5312c-0.35432-0.70865-0.53125-2.1434-0.53125-3.5625s0.17692-2.8226 0.53125-3.5312c0.70867-1.4173 2.1139-2.8226 3.5312-3.5312s2.1452-0.70866 3.5625 0 2.8226 3.5312 3.5312 3.5312c1.4173-1e-5 3.5625-2.1139 3.5625-3.5312v-14.188h-14.156c-1.4173-1e-5 -3.5312 2.1139-3.5312 3.5312-1e-5 0.70864 2.8226 2.1452 3.5312 3.5625s0.70866 2.1139 0 3.5312-2.1139 2.8538-3.5312 3.5625-5.6764 0.70867-7.0938 0-2.8538-2.1452-3.5625-3.5625-0.70865-2.1139 0-3.5312 3.5625-2.8538 3.5625-3.5625c-1e-5 -1.4173-2.1452-3.5313-3.5625-3.5312h-14.156z" fill-rule="evenodd" stroke="#000" stroke-width="1.25"/>
 <path d="m301.18 42.52v42.519h14.169c1.4173 0 3.5438 2.1264 3.5438 3.5438 0 0.70866-2.8351 2.1264-3.5438 3.5438s-0.70867 2.1264 0 3.5438 2.1264 2.8351 3.5438 3.5438 5.6702 0.70866 7.0875 0 2.8351-2.1264 3.5438-3.5438 0.70866-2.1264 0-3.5438-3.5438-2.8351-3.5438-3.5438c0-1.4173 2.1264-3.5438 3.5438-3.5438h14.175v-14.175c0-1.4173 2.1264-3.5375 3.5438-3.5375 0.70866 0 2.1264 2.8288 3.5438 3.5375s2.1202 0.70866 3.5375 0 2.8351-2.1202 3.5438-3.5375 0.70866-5.6702 0-7.0875-2.1264-2.8351-3.5438-3.5438-2.1202-0.70866-3.5375 0-2.8351 3.5438-3.5438 3.5438c-1.4173 0-3.5438-2.1264-3.5438-3.5438v-14.175h-42.519z" fill-rule="evenodd" stroke="#000" stroke-width="1.25"/>
 <path d="m124.02 42.52v42.5h14.188c1.4173 1e-5 3.5312 2.1452 3.5312 3.5625 0 0.70866-2.8226 2.1139-3.5312 3.5312s-0.70867 2.1452 0 3.5625 2.1139 2.8226 3.5312 3.5312 5.6764 0.70866 7.0938 0 2.8226-2.1139 3.5312-3.5312 0.70866-2.1452 0-3.5625-3.5312-2.8226-3.5312-3.5312c1e-5 -1.4173 2.1139-3.5625 3.5312-3.5625h14.188v-14.156c0-1.4173-2.1139-3.5312-3.5312-3.5312-0.70866 0-2.1452 2.8226-3.5625 3.5312s-2.1139 0.70866-3.5312 0-2.8538-2.1139-3.5625-3.5312-0.70867-5.6764 0-7.0938 2.1452-2.8538 3.5625-3.5625 2.1139-0.70865 3.5312 0 2.8538 3.5625 3.5625 3.5625c1.4173 0 3.5313-2.1452 3.5312-3.5625v-14.156h-42.531z" fill-rule="evenodd" stroke="#000" stroke-width="1.25"/>
 <path d="m35.433 42.52v42.531h14.156c1.4173 1e-5 3.5312-2.1139 3.5312-3.5312-1e-5 -0.70865-2.8226-2.1452-3.5312-3.5625s-0.70866-2.1139 0-3.5312 2.1139-2.8538 3.5312-3.5625 5.6764-0.70867 7.0938 0 2.8538 2.1452 3.5625 3.5625 0.70865 2.1139 0 3.5312-3.5625 2.8538-3.5625 3.5625c-1e-5 1.4173 2.1452 3.5313 3.5625 3.5312h14.156v-14.188c0-0.0321 0.02908-0.06096 0.03125-0.09375-0.08853-1.4149-2.1755-3.4375-3.5625-3.4375-0.70866 0-2.1139 2.8226-3.5312 3.5312s-2.1452 0.70866-3.5625 0-2.8226-2.1139-3.5312-3.5312-0.70868-5.6764 0-7.0938 2.1139-2.8226 3.5312-3.5312 2.1452-0.70865 3.5625 0 2.8226 3.5313 3.5312 3.5312c1.3886 0 3.4784-2.0224 3.5625-3.4375-0.00194-0.03094-0.03125-0.06342-0.03125-0.09375v-14.188h-42.5z" fill-rule="evenodd" stroke="#000" stroke-width="1.25"/>
 <path d="m411.01 382.14c-1.4173 0-2.8226 0.17692-3.5312 0.53125-1.4173 0.70866-2.8226 2.1452-3.5312 3.5625s-0.70864 2.1139 0 3.5312 3.5312 2.8226 3.5312 3.5312c0 1.4173-2.1139 3.5625-3.5312 3.5625h-14.188v14.156c-1e-5 1.4173 2.1139 3.5625 3.5312 3.5625 0.70866 0 2.1452-2.8538 3.5625-3.5625s2.1139-0.70866 3.5312 0 2.8538 2.1452 3.5625 3.5625 0.70867 5.6764 0 7.0938-2.1452 2.8226-3.5625 3.5312-2.1139 0.70866-3.5312 0-2.8538-3.5312-3.5625-3.5312c-1.4173 1e-5 -3.5312 2.1139-3.5312 3.5312v14.156h14.188c1.4173 0 3.5312 2.1452 3.5312 3.5625 0 0.70866-2.8226 2.1139-3.5312 3.5312s-0.70864 2.1452 0 3.5625 2.1139 2.8226 3.5312 3.5312 5.6764 0.70866 7.0938 0 2.8226-2.1139 3.5312-3.5312 0.70867-2.1452 0-3.5625-3.5312-2.8226-3.5312-3.5312c0-1.4173 2.1139-3.5625 3.5312-3.5625h14.156v-14.156c0-1.4173-2.1139-3.5312-3.5312-3.5312-0.70866 0-2.1139 2.8226-3.5312 3.5312s-2.1452 0.70866-3.5625 0-2.8226-2.1139-3.5312-3.5312-0.70866-5.6764 0-7.0938 2.1139-2.8538 3.5312-3.5625 2.1452-0.70865 3.5625 0 2.8226 3.5625 3.5312 3.5625c1.4173 0 3.5312-2.1452 3.5312-3.5625v-14.156h-14.156c-1.4173 0-3.5312-2.1452-3.5312-3.5625 0-0.70867 2.8226-2.1139 3.5312-3.5312s0.70867-2.1139 0-3.5312-2.1139-2.8538-3.5312-3.5625c-0.70866-0.35433-2.1452-0.53125-3.5625-0.53125z" fill-rule="evenodd" stroke="#000" stroke-width="1.25"/>
 <path d="m676.77 116.4c-1.4173 0-2.8351 0.17692-3.5438 0.53125-1.4173 0.70866-2.8351 2.1264-3.5438 3.5438s-0.70867 2.1264 0 3.5438 3.5438 2.8351 3.5438 3.5438c0 1.4173-2.1264 3.5438-3.5438 3.5438h-14.169v42.519h14.169c1.4173 0 3.5438 2.1264 3.5438 3.5438 0 0.70866-2.8351 2.1264-3.5438 3.5438s-0.70867 2.1264 0 3.5438 2.1264 2.8351 3.5438 3.5438 5.6702 0.70866 7.0875 0 2.8351-2.1264 3.5438-3.5438 0.70866-2.1264 0-3.5438-3.5438-2.8351-3.5438-3.5438c0-1.4173 2.1264-3.5438 3.5438-3.5438h14.175v-14.175c0-1.4173 2.1264-3.5375 3.5438-3.5375 0.70866 0 2.1264 2.8288 3.5438 3.5375s2.1202 0.70866 3.5375 0 2.8351-2.1202 3.5438-3.5375 0.70866-5.6702 0-7.0875-2.1264-2.8351-3.5438-3.5438-2.1202-0.70866-3.5375 0-2.8351 3.5438-3.5438 3.5438c-1.4173 0-3.5438-2.1264-3.5438-3.5438v-14.175h-14.175c-1.4173 0-3.5438-2.1264-3.5438-3.5438 0-0.70866 2.8351-2.1264 3.5438-3.5438s0.70866-2.1264 0-3.5438-2.1264-2.8351-3.5438-3.5438c-0.70866-0.35433-2.1264-0.53125-3.5438-0.53125z" fill-rule="evenodd" stroke="#000" stroke-width="1.25"/>
 <path d="m411.05 116.39c-1.4173 0-2.8538 0.17692-3.5625 0.53125-1.4173 0.70866-2.8226 2.1452-3.5312 3.5625s-0.70867 2.1139 0 3.5313 3.5312 2.8226 3.5312 3.5312c0 1.4173-2.1139 3.5625-3.5312 3.5625h-14.188v42.5h14.188c1.4173 1e-5 3.5312 2.1452 3.5312 3.5625 0 0.70866-2.8226 2.1139-3.5312 3.5312s-0.70867 2.1452 0 3.5625 2.1139 2.8226 3.5312 3.5312 5.6764 0.70866 7.0938 0 2.8226-2.1139 3.5312-3.5312 0.70866-2.1452 0-3.5625-3.5312-2.8226-3.5312-3.5312c1e-5 -1.4173 2.1139-3.5625 3.5312-3.5625h14.188v-14.156c0-1.4173-2.1139-3.5312-3.5312-3.5312-0.70866 0-2.1452 2.8226-3.5625 3.5312s-2.1139 0.70866-3.5312 0-2.8538-2.1139-3.5625-3.5312-0.70867-5.6764 0-7.0938 2.1452-2.8538 3.5625-3.5625 2.1139-0.70865 3.5312 0 2.8538 3.5625 3.5625 3.5625c1.4173 0 3.5313-2.1452 3.5312-3.5625v-14.156h-14.188c-1.4173 0-3.5312-2.1452-3.5312-3.5625 1e-5 -0.70866 2.8226-2.1139 3.5312-3.5312s0.70866-2.1139 0-3.5313-2.1139-2.8538-3.5312-3.5625c-0.70865-0.35433-2.1139-0.53125-3.5312-0.53125z" fill-rule="evenodd" stroke="#000" stroke-width="1.25"/>
 <path d="m322.43 116.4c-1.4191 0-2.8538 0.17692-3.5625 0.53125-1.4173 0.70866-2.8226 2.1139-3.5312 3.5312s-0.70866 2.1452 0 3.5625 3.5312 2.8226 3.5312 3.5312c-2e-5 1.4173-2.1139 3.5312-3.5312 3.5312h-14.156v42.531h14.156c1.4173 1e-5 3.5312-2.1139 3.5312-3.5312-1e-5 -0.70865-2.8226-2.1452-3.5312-3.5625s-0.70866-2.1139 0-3.5312 2.1139-2.8538 3.5312-3.5625 5.6764-0.70867 7.0938 0 2.8538 2.1452 3.5625 3.5625 0.70865 2.1139 0 3.5312-3.5625 2.8538-3.5625 3.5625c-1e-5 1.4173 2.1452 3.5313 3.5625 3.5312h14.156v-14.188c0-0.0321 0.02908-0.06096 0.03125-0.09375-0.08853-1.4149-2.1755-3.4375-3.5625-3.4375-0.70866 0-2.1139 2.8226-3.5312 3.5312s-2.1452 0.70866-3.5625 0-2.8226-2.1139-3.5312-3.5312-0.70868-5.6764 0-7.0938 2.1139-2.8226 3.5312-3.5312 2.1452-0.70865 3.5625 0 2.8226 3.5313 3.5312 3.5312c1.3886 0 3.4784-2.0224 3.5625-3.4375-0.00194-0.03094-0.03125-0.06342-0.03125-0.09375v-14.188h-14.156c-1.4173-1e-5 -3.5625-2.1139-3.5625-3.5312-1e-5 -0.70865 2.8538-2.1139 3.5625-3.5312s0.70866-2.1452 0-3.5625-2.1452-2.8226-3.5625-3.5312c-0.70867-0.35433-2.1121-0.53125-3.5312-0.53125z" fill-rule="evenodd" stroke="#000" stroke-width="1.25"/>
 <path d="m212.6 219.69v14.156c-1e-5 1.4173 2.1139 3.5312 3.5312 3.5312 0.70865 0 2.1452-2.8226 3.5625-3.5312s2.1139-0.70866 3.5312 0 2.8538 2.1139 3.5625 3.5312 0.70867 5.6764 0 7.0938-2.1452 2.8538-3.5625 3.5625-2.1139 0.70865-3.5312 0-2.8538-3.5625-3.5625-3.5625c-1.4173 0-3.5313 2.1452-3.5312 3.5625v14.156h14.188c0.0321 1e-5 0.06096 0.02908 0.09375 0.03125 1.4149-0.08852 3.4375-2.1755 3.4375-3.5625 0-0.70865-2.8226-2.1139-3.5312-3.5312s-0.70866-2.1452 0-3.5625 2.1139-2.8226 3.5312-3.5312 5.6764-0.70868 7.0938 0 2.8226 2.1139 3.5312 3.5312 0.70865 2.1452 0 3.5625-3.5313 2.8226-3.5312 3.5312c0 1.3886 2.0224 3.4784 3.4375 3.5625 0.03094-0.00193 0.06342-0.03125 0.09375-0.03125h14.156v-14.156c0-1.4173-2.1139-3.5625-3.5312-3.5625-0.70864 0-2.1139 2.8538-3.5312 3.5625s-2.1452 0.70866-3.5625 0-2.8226-2.1452-3.5312-3.5625c-0.35432-0.70866-0.53125-2.1121-0.53125-3.5312s0.17692-2.8538 0.53125-3.5625c0.70867-1.4173 2.1139-2.8226 3.5312-3.5312s2.1452-0.70866 3.5625 0 2.8226 3.5312 3.5312 3.5312c1.4173-1e-5 3.5312-2.1139 3.5312-3.5312v-14.156h-42.5z" fill-rule="evenodd" stroke="#000" stroke-width="1.25"/>
 <path d="m166.54 485.43h-42.519v14.169c0 1.4173-2.1264 3.5438-3.5438 3.5438-0.70866 0-2.1264-2.8351-3.5438-3.5438s-2.1264-0.70867-3.5438 0-2.8351 2.1264-3.5438 3.5438-0.70866 5.6702 0 7.0875 2.1264 2.8351 3.5438 3.5438 2.1264 0.70866 3.5438 0 2.8351-3.5438 3.5438-3.5438c1.4173 0 3.5438 2.1264 3.5438 3.5438v14.175h14.175c1.4173 0 3.5375 2.1264 3.5375 3.5438 0 0.70866-2.8288 2.1264-3.5375 3.5438s-0.70866 2.1202 0 3.5375 2.1202 2.8351 3.5375 3.5438 5.6702 0.70866 7.0875 0 2.8351-2.1264 3.5438-3.5438 0.70866-2.1202 0-3.5375-3.5438-2.8351-3.5438-3.5438c0-1.4173 2.1264-3.5438 3.5438-3.5438h14.175v-42.519z" fill-rule="evenodd" stroke="#000" stroke-width="1.25"/>
 <path d="m478.35 173.62h42.519v-14.169c0-1.4173 2.1264-3.5438 3.5438-3.5438 0.70866 0 2.1264 2.8351 3.5438 3.5438s2.1264 0.70867 3.5438 0 2.8351-2.1264 3.5438-3.5438 0.70866-5.6702 0-7.0875-2.1264-2.8351-3.5438-3.5438-2.1264-0.70866-3.5438 0-2.8351 3.5438-3.5438 3.5438c-1.4173 0-3.5438-2.1264-3.5438-3.5438v-14.175h-14.175c-1.4173 0-3.5375-2.1264-3.5375-3.5438 0-0.70866 2.8288-2.1264 3.5375-3.5438s0.70866-2.1202 0-3.5375-2.1202-2.8351-3.5375-3.5438-5.6702-0.70866-7.0875 0-2.8351 2.1264-3.5438 3.5438-0.70866 2.1202 0 3.5375 3.5438 2.8351 3.5438 3.5438c0 1.4173-2.1264 3.5438-3.5438 3.5438h-14.175v42.519z" fill-rule="evenodd" stroke="#000" stroke-width="1.25"/>
 <path d="m698.03 616.53h-42.519v-14.169c0-1.4173-2.1264-3.5438-3.5438-3.5438-0.70866 0-2.1264 2.8351-3.5438 3.5438s-2.1264 0.70867-3.5438 0-2.8351-2.1264-3.5438-3.5438-0.70866-5.6702 0-7.0875 2.1264-2.8351 3.5438-3.5438 2.1264-0.70866 3.5438 0 2.8351 3.5438 3.5438 3.5438c1.4173 0 3.5438-2.1264 3.5438-3.5438v-14.175h14.175c1.4173 0 3.5375-2.1264 3.5375-3.5438 0-0.70866-2.8288-2.1264-3.5375-3.5438s-0.70866-2.1202 0-3.5375 2.1202-2.8351 3.5375-3.5438 5.6702-0.70866 7.0875 0 2.8351 2.1264 3.5438 3.5438 0.70866 2.1202 0 3.5375-3.5438 2.8351-3.5438 3.5438c0 1.4173 2.1264 3.5438 3.5438 3.5438h14.175v42.519z" fill-rule="evenodd" stroke="#000" stroke-width="1.25"/>
 <path d="m77.947 485.43h-42.5v14.188c-1e-5 1.4173-2.1452 3.5312-3.5625 3.5312-0.70866 0-2.1139-2.8226-3.5312-3.5312s-2.1452-0.70867-3.5625 0-2.8226 2.1139-3.5312 3.5312-0.70866 5.6764 0 7.0938 2.1139 2.8226 3.5312 3.5312 2.1452 0.70866 3.5625 0 2.8226-3.5312 3.5312-3.5312c1.4173 1e-5 3.5625 2.1139 3.5625 3.5312v14.188h14.156c1.4173 0 3.5312-2.1139 3.5312-3.5312 0-0.70866-2.8226-2.1452-3.5312-3.5625s-0.70866-2.1139 0-3.5312 2.1139-2.8538 3.5312-3.5625 5.6764-0.70867 7.0938 0 2.8538 2.1452 3.5625 3.5625 0.70865 2.1139 0 3.5312-3.5625 2.8538-3.5625 3.5625c0 1.4173 2.1452 3.5313 3.5625 3.5312h14.156v-42.531z" fill-rule="evenodd" stroke="#000" stroke-width="1.25"/>
 <path d="m698.04 350.78v-42.5h-14.188c-1.4173-1e-5 -3.5312-2.1452-3.5312-3.5625 0-0.70866 2.8226-2.1139 3.5312-3.5312s0.70867-2.1452 0-3.5625-2.1139-2.8226-3.5312-3.5312-5.6764-0.70866-7.0938 0-2.8226 2.1139-3.5312 3.5312-0.70866 2.1452 0 3.5625 3.5312 2.8226 3.5312 3.5312c-1e-5 1.4173-2.1139 3.5625-3.5312 3.5625h-14.188v14.156c0 1.4173 2.1139 3.5312 3.5312 3.5312 0.70866 0 2.1452-2.8226 3.5625-3.5312s2.1139-0.70866 3.5312 0 2.8538 2.1139 3.5625 3.5312 0.70867 5.6764 0 7.0938-2.1452 2.8538-3.5625 3.5625-2.1139 0.70865-3.5312 0-2.8538-3.5625-3.5625-3.5625c-1.4173 0-3.5313 2.1452-3.5312 3.5625v14.156h42.531z" fill-rule="evenodd" stroke="#000" stroke-width="1.25"/>
 <path d="m655.51 85.051h42.5v-14.188c1e-5 -1.4173 2.1452-3.5312 3.5625-3.5312 0.70866 0 2.1139 2.8226 3.5312 3.5312s2.1452 0.70867 3.5625 0 2.8226-2.1139 3.5312-3.5312 0.70866-5.6764 0-7.0938-2.1139-2.8226-3.5312-3.5312-2.1452-0.70866-3.5625 0-2.8226 3.5312-3.5312 3.5312c-1.4173-1e-5 -3.5625-2.1139-3.5625-3.5312v-14.188h-14.156c-1.4173 0-3.5312 2.1139-3.5312 3.5312 0 0.70866 2.8226 2.1452 3.5312 3.5625s0.70866 2.1139 0 3.5312-2.1139 2.8538-3.5312 3.5625-5.6764 0.70867-7.0938 0-2.8538-2.1452-3.5625-3.5625-0.70865-2.1139 0-3.5312 3.5625-2.8538 3.5625-3.5625c0-1.4173-2.1452-3.5313-3.5625-3.5312h-14.156v42.531z" fill-rule="evenodd" stroke="#000" stroke-width="1.25"/>
 <path d="m212.6 173.62v-42.5h14.188c1.4173-1e-5 3.5312-2.1452 3.5312-3.5625 0-0.70866-2.8226-2.1139-3.5312-3.5312s-0.70867-2.1452 0-3.5625 2.1139-2.8226 3.5312-3.5312 5.6764-0.70866 7.0938 0 2.8226 2.1139 3.5312 3.5312 0.70866 2.1452 0 3.5625-3.5312 2.8226-3.5312 3.5312c1e-5 1.4173 2.1139 3.5625 3.5312 3.5625h14.188v14.156c0 1.4173-2.1139 3.5312-3.5312 3.5312-0.70866 0-2.1452-2.8226-3.5625-3.5312s-2.1139-0.70866-3.5312 0-2.8538 2.1139-3.5625 3.5312-0.70867 5.6764 0 7.0938 2.1452 2.8538 3.5625 3.5625 2.1139 0.70865 3.5312 0 2.8538-3.5625 3.5625-3.5625c1.4173 0 3.5313 2.1452 3.5312 3.5625v14.156h-42.531z" fill-rule="evenodd" stroke="#000" stroke-width="1.25"/>
 <path d="m609.44 527.96h-42.5v-14.188c-1e-5 -1.4173-2.1452-3.5312-3.5625-3.5312-0.70866 0-2.1139 2.8226-3.5312 3.5312s-2.1452 0.70867-3.5625 0-2.8226-2.1139-3.5312-3.5312-0.70866-5.6764 0-7.0938 2.1139-2.8226 3.5312-3.5312 2.1452-0.70866 3.5625 0 2.8226 3.5312 3.5312 3.5312c1.4173-1e-5 3.5625-2.1139 3.5625-3.5312v-14.188h14.156c1.4173 0 3.5312 2.1139 3.5312 3.5312 0 0.70866-2.8226 2.1452-3.5312 3.5625s-0.70866 2.1139 0 3.5312 2.1139 2.8538 3.5312 3.5625 5.6764 0.70867 7.0938 0 2.8538-2.1452 3.5625-3.5625 0.70865-2.1139 0-3.5312-3.5625-2.8538-3.5625-3.5625c0-1.4173 2.1452-3.5313 3.5625-3.5312h14.156v42.531z" fill-rule="evenodd" stroke="#000" stroke-width="1.25"/>
 <path d="m166.55 219.69v42.5h-14.188c-1.4173 1e-5 -3.5312 2.1452-3.5312 3.5625 0 0.70866 2.8226 2.1139 3.5312 3.5312s0.70867 2.1452 0 3.5625-2.1139 2.8226-3.5312 3.5312-5.6764 0.70866-7.0938 0-2.8226-2.1139-3.5312-3.5312-0.70866-2.1452 0-3.5625 3.5312-2.8226 3.5312-3.5312c-1e-5 -1.4173-2.1139-3.5625-3.5312-3.5625h-14.188v-14.156c0-1.4173 2.1139-3.5312 3.5312-3.5312 0.70866 0 2.1452 2.8226 3.5625 3.5312s2.1139 0.70866 3.5312 0 2.8538-2.1139 3.5625-3.5312 0.70867-5.6764 0-7.0938-2.1452-2.8538-3.5625-3.5625-2.1139-0.70865-3.5312 0-2.8538 3.5625-3.5625 3.5625c-1.4173 0-3.5313-2.1452-3.5312-3.5625v-14.156h42.531z" fill-rule="evenodd" stroke="#000" stroke-width="1.25"/>
 <path d="m212.6 42.52h42.5v14.188c1e-5 1.4173 2.1452 3.5312 3.5625 3.5312 0.70866 0 2.1139-2.8226 3.5312-3.5312s2.1452-0.70867 3.5625 0 2.8226 2.1139 3.5312 3.5312 0.70866 5.6764 0 7.0938-2.1139 2.8226-3.5312 3.5312-2.1452 0.70866-3.5625 0-2.8226-3.5312-3.5312-3.5312c-1.4173 1e-5 -3.5625 2.1139-3.5625 3.5312v14.188h-14.156c-1.4173 0-3.5312-2.1139-3.5312-3.5312 0-0.70866 2.8226-2.1452 3.5312-3.5625s0.70866-2.1139 0-3.5312-2.1139-2.8538-3.5312-3.5625-5.6764-0.70867-7.0938 0-2.8538 2.1452-3.5625 3.5625-0.70865 2.1139 0 3.5312 3.5625 2.8538 3.5625 3.5625c0 1.4173-2.1452 3.5313-3.5625 3.5312h-14.156v-42.531z" fill-rule="evenodd" stroke="#000" stroke-width="1.25"/>
 <path d="m77.964 219.69h-42.531v14.156c-1e-5 1.4173 2.1139 3.5312 3.5312 3.5312 0.70865-1e-5 2.1452-2.8226 3.5625-3.5312s2.1139-0.70866 3.5312 0 2.8538 2.1139 3.5625 3.5312 0.70867 5.6764 0 7.0938-2.1452 2.8538-3.5625 3.5625-2.1139 0.70865-3.5312 0-2.8538-3.5625-3.5625-3.5625c-1.4173-1e-5 -3.5313 2.1452-3.5312 3.5625v14.156h14.188c0.0321 0 0.06096 0.02908 0.09375 0.03125 1.4149-0.08853 3.4375-2.1755 3.4375-3.5625 0-0.70866-2.8226-2.1139-3.5312-3.5312s-0.70866-2.1452 0-3.5625 2.1139-2.8226 3.5312-3.5312 5.6764-0.70868 7.0938 0 2.8226 2.1139 3.5312 3.5312 0.70865 2.1452 0 3.5625-3.5313 2.8226-3.5312 3.5312c0 1.3886 2.0224 3.4784 3.4375 3.5625 0.03094-0.00194 0.06342-0.03125 0.09375-0.03125h14.188v-42.5z" fill-rule="evenodd" stroke="#000" stroke-width="1.25"/>
 <path d="m609.46 262.22v-42.531h-14.156c-1.4173-1e-5 -3.5312 2.1139-3.5312 3.5312 1e-5 0.70865 2.8226 2.1452 3.5312 3.5625s0.70866 2.1139 0 3.5312-2.1139 2.8538-3.5312 3.5625-5.6764 0.70867-7.0938 0-2.8538-2.1452-3.5625-3.5625-0.70865-2.1139 0-3.5312 3.5625-2.8538 3.5625-3.5625c1e-5 -1.4173-2.1452-3.5313-3.5625-3.5312h-14.156v14.188c0 0.0321-0.02908 0.06096-0.03125 0.09375 0.08853 1.4149 2.1755 3.4375 3.5625 3.4375 0.70866 0 2.1139-2.8226 3.5312-3.5312s2.1452-0.70866 3.5625 0 2.8226 2.1139 3.5312 3.5312 0.70868 5.6764 0 7.0938-2.1139 2.8226-3.5312 3.5312-2.1452 0.70865-3.5625 0-2.8226-3.5313-3.5312-3.5312c-1.3886 0-3.4784 2.0224-3.5625 3.4375 0.00194 0.03094 0.03125 0.06342 0.03125 0.09375v14.188h42.5z" fill-rule="evenodd" stroke="#000" stroke-width="1.25"/>
 <path d="m389.76 85.051h42.531v-14.156c1e-5 -1.4173-2.1139-3.5312-3.5312-3.5312-0.70865 1e-5 -2.1452 2.8226-3.5625 3.5312s-2.1139 0.70866-3.5312 0-2.8538-2.1139-3.5625-3.5312-0.70867-5.6764 0-7.0938 2.1452-2.8538 3.5625-3.5625 2.1139-0.70865 3.5312 0 2.8538 3.5625 3.5625 3.5625c1.4173 1e-5 3.5312-2.1452 3.5312-3.5625v-14.156h-14.187c-0.0321 0-0.06096-0.02908-0.09375-0.03125-1.4149 0.08853-3.4375 2.1755-3.4375 3.5625 0 0.70866 2.8226 2.1139 3.5312 3.5312s0.70866 2.1452 0 3.5625-2.1139 2.8226-3.5312 3.5312-5.6764 0.70868-7.0938 0-2.8226-2.1139-3.5312-3.5312-0.70865-2.1452 0-3.5625 3.5313-2.8226 3.5312-3.5312c0-1.3886-2.0224-3.4784-3.4375-3.5625-0.03094 0.00194-0.06342 0.03125-0.09375 0.03125h-14.188v42.5z" fill-rule="evenodd" stroke="#000" stroke-width="1.25"/>
 <path d="m535.57 506.69c0-1.4173-0.17692-2.8351-0.53125-3.5438-0.70866-1.4173-2.1264-2.8351-3.5438-3.5438s-2.1264-0.70867-3.5438 0-2.8351 3.5438-3.5438 3.5438c-1.4173 0-3.5438-2.1264-3.5438-3.5438v-14.169h-42.519v14.169c0 1.4173-2.1264 3.5438-3.5438 3.5438-0.70866 0-2.1264-2.8351-3.5438-3.5438s-2.1264-0.70867-3.5438 0-2.8351 2.1264-3.5438 3.5438-0.70866 5.6702 0 7.0875 2.1264 2.8351 3.5438 3.5438 2.1264 0.70866 3.5438 0 2.8351-3.5438 3.5438-3.5438c1.4173 0 3.5438 2.1264 3.5438 3.5438v14.175h14.175c1.4173 0 3.5375 2.1264 3.5375 3.5438 0 0.70866-2.8288 2.1264-3.5375 3.5438s-0.70866 2.1202 0 3.5375 2.1202 2.8351 3.5375 3.5438 5.6702 0.70866 7.0875 0 2.8351-2.1264 3.5438-3.5438 0.70866-2.1202 0-3.5375-3.5438-2.8351-3.5438-3.5438c0-1.4173 2.1264-3.5438 3.5438-3.5438h14.175v-14.175c0-1.4173 2.1264-3.5438 3.5438-3.5438 0.70866 0 2.1264 2.8351 3.5438 3.5438s2.1264 0.70866 3.5438 0 2.8351-2.1264 3.5438-3.5438c0.35433-0.70866 0.53125-2.1264 0.53125-3.5438z" fill-rule="evenodd" stroke="#000" stroke-width="1.25"/>
 <path d="m145.27 719.83c1.4173 0 2.8351-0.17692 3.5438-0.53125 1.4173-0.70866 2.8351-2.1264 3.5438-3.5438s0.70867-2.1264 0-3.5438-3.5438-2.8351-3.5438-3.5438c0-1.4173 2.1264-3.5438 3.5438-3.5438h14.169v-42.519h-14.169c-1.4173 0-3.5438-2.1264-3.5438-3.5438 0-0.70866 2.8351-2.1264 3.5438-3.5438s0.70867-2.1264 0-3.5438-2.1264-2.8351-3.5438-3.5438-5.6702-0.70866-7.0875 0-2.8351 2.1264-3.5438 3.5438-0.70866 2.1264 0 3.5438 3.5438 2.8351 3.5438 3.5438c0 1.4173-2.1264 3.5438-3.5438 3.5438h-14.175v14.175c0 1.4173-2.1264 3.5375-3.5438 3.5375-0.70866 0-2.1264-2.8288-3.5438-3.5375s-2.1202-0.70866-3.5375 0-2.8351 2.1202-3.5438 3.5375-0.70866 5.6702 0 7.0875 2.1264 2.8351 3.5438 3.5438 2.1202 0.70866 3.5375 0 2.8351-3.5438 3.5438-3.5438c1.4173 0 3.5438 2.1264 3.5438 3.5438v14.175h14.175c1.4173 0 3.5438 2.1264 3.5438 3.5438 0 0.70866-2.8351 2.1264-3.5438 3.5438s-0.70866 2.1264 0 3.5438 2.1264 2.8351 3.5438 3.5438c0.70866 0.35433 2.1264 0.53125 3.5438 0.53125z" fill-rule="evenodd" stroke="#000" stroke-width="1.25"/>
 <path d="m463.64 683.86c0 1.4173 0.17692 2.8351 0.53125 3.5438 0.70866 1.4173 2.1264 2.8351 3.5438 3.5438s2.1264 0.70867 3.5438 0 2.8351-3.5438 3.5438-3.5438c1.4173 0 3.5438 2.1264 3.5438 3.5438v14.169h42.519v-14.169c0-1.4173 2.1264-3.5438 3.5438-3.5438 0.70866 0 2.1264 2.8351 3.5438 3.5438s2.1264 0.70867 3.5438 0 2.8351-2.1264 3.5438-3.5438 0.70866-5.6702 0-7.0875-2.1264-2.8351-3.5438-3.5438-2.1264-0.70866-3.5438 0-2.8351 3.5438-3.5438 3.5438c-1.4173 0-3.5438-2.1264-3.5438-3.5438v-14.175h-14.175c-1.4173 0-3.5375-2.1264-3.5375-3.5438 0-0.70866 2.8288-2.1264 3.5375-3.5438s0.70866-2.1202 0-3.5375-2.1202-2.8351-3.5375-3.5438-5.6702-0.70866-7.0875 0-2.8351 2.1264-3.5438 3.5438-0.70866 2.1202 0 3.5375 3.5438 2.8351 3.5438 3.5438c0 1.4173-2.1264 3.5438-3.5438 3.5438h-14.175v14.175c0 1.4173-2.1264 3.5438-3.5438 3.5438-0.70866 0-2.1264-2.8351-3.5438-3.5438s-2.1264-0.70866-3.5438 0-2.8351 2.1264-3.5438 3.5438c-0.35433 0.70866-0.53125 2.1264-0.53125 3.5438z" fill-rule="evenodd" stroke="#000" stroke-width="1.25"/>
 <path d="m145.27 382.14c1.4173 0 2.8538 0.17692 3.5625 0.53125 1.4173 0.70866 2.8226 2.1452 3.5312 3.5625s0.70867 2.1139 0 3.5313-3.5312 2.8226-3.5312 3.5312c0 1.4173 2.1139 3.5625 3.5312 3.5625h14.188v42.5h-14.188c-1.4173 1e-5 -3.5312 2.1452-3.5312 3.5625 0 0.70866 2.8226 2.1139 3.5312 3.5312s0.70867 2.1452 0 3.5625-2.1139 2.8226-3.5312 3.5312-5.6764 0.70866-7.0938 0-2.8226-2.1139-3.5312-3.5312-0.70866-2.1452 0-3.5625 3.5312-2.8226 3.5312-3.5312c-1e-5 -1.4173-2.1139-3.5625-3.5312-3.5625h-14.188v-14.156c0-1.4173 2.1139-3.5312 3.5312-3.5312 0.70866 0 2.1452 2.8226 3.5625 3.5312s2.1139 0.70866 3.5312 0 2.8538-2.1139 3.5625-3.5312 0.70867-5.6764 0-7.0938-2.1452-2.8538-3.5625-3.5625-2.1139-0.70865-3.5312 0-2.8538 3.5625-3.5625 3.5625c-1.4173 0-3.5313-2.1452-3.5312-3.5625v-14.156h14.188c1.4173 0 3.5312-2.1452 3.5312-3.5625-1e-5 -0.70866-2.8226-2.1139-3.5312-3.5312s-0.70866-2.1139 0-3.5313 2.1139-2.8538 3.5312-3.5625c0.70865-0.35433 2.1139-0.53125 3.5312-0.53125z" fill-rule="evenodd" stroke="#000" stroke-width="1.25"/>
 <path d="m447 595.27c0 1.4173-0.17692 2.8538-0.53125 3.5625-0.70866 1.4173-2.1452 2.8226-3.5625 3.5312s-2.1139 0.70867-3.5312 0-2.8226-3.5312-3.5312-3.5312c-1.4173 0-3.5625 2.1139-3.5625 3.5312v14.188h-42.5v-14.188c-1e-5 -1.4173-2.1452-3.5312-3.5625-3.5312-0.70866 0-2.1139 2.8226-3.5312 3.5312s-2.1452 0.70867-3.5625 0-2.8226-2.1139-3.5312-3.5312-0.70866-5.6764 0-7.0938 2.1139-2.8226 3.5312-3.5312 2.1452-0.70866 3.5625 0 2.8226 3.5312 3.5312 3.5312c1.4173-1e-5 3.5625-2.1139 3.5625-3.5312v-14.188h14.156c1.4173 0 3.5312 2.1139 3.5312 3.5312 0 0.70866-2.8226 2.1452-3.5312 3.5625s-0.70866 2.1139 0 3.5312 2.1139 2.8538 3.5312 3.5625 5.6764 0.70867 7.0938 0 2.8538-2.1452 3.5625-3.5625 0.70865-2.1139 0-3.5312-3.5625-2.8538-3.5625-3.5625c0-1.4173 2.1452-3.5313 3.5625-3.5312h14.156v14.188c0 1.4173 2.1452 3.5312 3.5625 3.5312 0.70866-1e-5 2.1139-2.8226 3.5312-3.5312s2.1139-0.70866 3.5312 0 2.8538 2.1139 3.5625 3.5312c0.35433 0.70865 0.53125 2.1139 0.53125 3.5312z" fill-rule="evenodd" stroke="#000" stroke-width="1.25"/>
 <path d="m447 506.71c0-1.4173-0.17692-2.8538-0.53125-3.5625-0.70866-1.4173-2.1452-2.8226-3.5625-3.5312s-2.1139-0.70867-3.5312 0-2.8226 3.5312-3.5312 3.5312c-1.4173 0-3.5625-2.1139-3.5625-3.5312v-14.188h-42.5v14.188c-1e-5 1.4173-2.1452 3.5312-3.5625 3.5312-0.70866 0-2.1139-2.8226-3.5312-3.5312s-2.1452-0.70867-3.5625 0-2.8226 2.1139-3.5312 3.5312-0.70866 5.6764 0 7.0938 2.1139 2.8226 3.5312 3.5312 2.1452 0.70866 3.5625 0 2.8226-3.5312 3.5312-3.5312c1.4173 1e-5 3.5625 2.1139 3.5625 3.5312v14.188h14.156c1.4173 0 3.5312-2.1139 3.5312-3.5312 0-0.70866-2.8226-2.1452-3.5312-3.5625s-0.70866-2.1139 0-3.5312 2.1139-2.8538 3.5312-3.5625 5.6764-0.70867 7.0938 0 2.8538 2.1452 3.5625 3.5625 0.70865 2.1139 0 3.5312-3.5625 2.8538-3.5625 3.5625c0 1.4173 2.1452 3.5313 3.5625 3.5312h14.156v-14.188c0-1.4173 2.1452-3.5312 3.5625-3.5312 0.70866 1e-5 2.1139 2.8226 3.5312 3.5312s2.1139 0.70866 3.5312 0 2.8538-2.1139 3.5625-3.5312c0.35433-0.70865 0.53125-2.1139 0.53125-3.5312z" fill-rule="evenodd" stroke="#000" stroke-width="1.25"/>
 <path d="m588.18 99.738c-1.4191 0-2.8538-0.17692-3.5625-0.53125-1.4173-0.70866-2.8226-2.1139-3.5312-3.5312s-0.70866-2.1452 0-3.5625 3.5312-2.8226 3.5312-3.5312c-2e-5 -1.4173-2.1139-3.5312-3.5312-3.5312h-14.156v-42.531h14.156c1.4173-1e-5 3.5312 2.1139 3.5312 3.5312-1e-5 0.70865-2.8226 2.1452-3.5312 3.5625s-0.70866 2.1139 0 3.5312 2.1139 2.8538 3.5312 3.5625 5.6764 0.70867 7.0938 0 2.8538-2.1452 3.5625-3.5625 0.70865-2.1139 0-3.5312-3.5625-2.8538-3.5625-3.5625c-1e-5 -1.4173 2.1452-3.5313 3.5625-3.5312h14.156v14.188c0 0.0321 0.02908 0.06096 0.03125 0.09375-0.08853 1.4149-2.1755 3.4375-3.5625 3.4375-0.70866 0-2.1139-2.8226-3.5312-3.5312s-2.1452-0.70866-3.5625 0-2.8226 2.1139-3.5312 3.5312-0.70868 5.6764 0 7.0938 2.1139 2.8226 3.5312 3.5312 2.1452 0.70865 3.5625 0 2.8226-3.5313 3.5312-3.5312c1.3886 0 3.4784 2.0224 3.5625 3.4375-0.00194 0.03094-0.03125 0.06342-0.03125 0.09375v14.188h-14.156c-1.4173 1e-5 -3.5625 2.1139-3.5625 3.5312-1e-5 0.70865 2.8538 2.1139 3.5625 3.5312s0.70866 2.1452 0 3.5625-2.1452 2.8226-3.5625 3.5312c-0.70867 0.35433-2.1121 0.53125-3.5312 0.53125z" fill-rule="evenodd" stroke="#000" stroke-width="1.25"/>
 <path d="m446.98 240.94c0-1.4191-0.17692-2.8538-0.53125-3.5625-0.70866-1.4173-2.1139-2.8226-3.5312-3.5312s-2.1452-0.70866-3.5625 0-2.8226 3.5312-3.5312 3.5312c-1.4173-2e-5 -3.5312-2.1139-3.5312-3.5312v-14.156h-42.531v14.156c-1e-5 1.4173 2.1139 3.5312 3.5312 3.5312 0.70865-1e-5 2.1452-2.8226 3.5625-3.5312s2.1139-0.70866 3.5312 0 2.8538 2.1139 3.5625 3.5312 0.70867 5.6764 0 7.0938-2.1452 2.8538-3.5625 3.5625-2.1139 0.70865-3.5312 0-2.8538-3.5625-3.5625-3.5625c-1.4173-1e-5 -3.5313 2.1452-3.5312 3.5625v14.156h14.188c0.0321 0 0.06096 0.02908 0.09375 0.03125 1.4149-0.08853 3.4375-2.1755 3.4375-3.5625 0-0.70866-2.8226-2.1139-3.5312-3.5312s-0.70866-2.1452 0-3.5625 2.1139-2.8226 3.5312-3.5312 5.6764-0.70868 7.0938 0 2.8226 2.1139 3.5312 3.5312 0.70865 2.1452 0 3.5625-3.5313 2.8226-3.5312 3.5312c0 1.3886 2.0224 3.4784 3.4375 3.5625 0.03094-0.00194 0.06342-0.03125 0.09375-0.03125h14.188v-14.156c1e-5 -1.4173 2.1139-3.5625 3.5312-3.5625 0.70865-1e-5 2.1139 2.8538 3.5312 3.5625s2.1452 0.70866 3.5625 0 2.8226-2.1452 3.5312-3.5625c0.35433-0.70867 0.53125-2.1121 0.53125-3.5312z" fill-rule="evenodd" stroke="#000" stroke-width="1.25"/>
 <path d="m446.98 329.55c0 1.4191-0.17692 2.8538-0.53125 3.5625-0.70866 1.4173-2.1139 2.8226-3.5312 3.5312s-2.1452 0.70866-3.5625 0-2.8226-3.5312-3.5312-3.5312c-1.4173 2e-5 -3.5312 2.1139-3.5312 3.5312v14.156h-42.531v-14.156c-1e-5 -1.4173 2.1139-3.5312 3.5312-3.5312 0.70865 1e-5 2.1452 2.8226 3.5625 3.5312s2.1139 0.70866 3.5312 0 2.8538-2.1139 3.5625-3.5312 0.70867-5.6764 0-7.0938-2.1452-2.8538-3.5625-3.5625-2.1139-0.70865-3.5312 0-2.8538 3.5625-3.5625 3.5625c-1.4173 1e-5 -3.5313-2.1452-3.5312-3.5625v-14.156h14.188c0.0321 0 0.06096-0.02908 0.09375-0.03125 1.4149 0.08853 3.4375 2.1755 3.4375 3.5625 0 0.70866-2.8226 2.1139-3.5312 3.5312s-0.70866 2.1452 0 3.5625 2.1139 2.8226 3.5312 3.5312 5.6764 0.70868 7.0938 0 2.8226-2.1139 3.5312-3.5312 0.70865-2.1452 0-3.5625-3.5313-2.8226-3.5312-3.5312c0-1.3886 2.0224-3.4784 3.4375-3.5625 0.03094 0.00194 0.06342 0.03125 0.09375 0.03125h14.188v14.156c1e-5 1.4173 2.1139 3.5625 3.5312 3.5625 0.70865 1e-5 2.1139-2.8538 3.5312-3.5625s2.1452-0.70866 3.5625 0 2.8226 2.1452 3.5312 3.5625c0.35433 0.70867 0.53125 2.1121 0.53125 3.5312z" fill-rule="evenodd" stroke="#000" stroke-width="1.25"/>
 <path d="m56.714 382.15c1.4191 0 2.8538 0.17692 3.5625 0.53125 1.4173 0.70866 2.8226 2.1139 3.5312 3.5312s0.70866 2.1452 0 3.5625-3.5312 2.8226-3.5312 3.5312c2e-5 1.4173 2.1139 3.5312 3.5312 3.5312h14.156v42.531h-14.156c-1.4173 1e-5 -3.5312-2.1139-3.5312-3.5312 1e-5 -0.70865 2.8226-2.1452 3.5312-3.5625s0.70866-2.1139 0-3.5312-2.1139-2.8538-3.5312-3.5625-5.6764-0.70867-7.0938 0-2.8538 2.1452-3.5625 3.5625-0.70865 2.1139 0 3.5312 3.5625 2.8538 3.5625 3.5625c1e-5 1.4173-2.1452 3.5313-3.5625 3.5312h-14.156v-14.188c0-0.0321-0.02908-0.06096-0.03125-0.09375 0.08853-1.4149 2.1755-3.4375 3.5625-3.4375 0.70866 0 2.1139 2.8226 3.5312 3.5312s2.1452 0.70866 3.5625 0 2.8226-2.1139 3.5312-3.5312 0.70868-5.6764 0-7.0938-2.1139-2.8226-3.5312-3.5312-2.1452-0.70865-3.5625 0-2.8226 3.5313-3.5312 3.5312c-1.3886 0-3.4784-2.0224-3.5625-3.4375 0.00194-0.03094 0.03125-0.06342 0.03125-0.09375v-14.188h14.156c1.4173-1e-5 3.5625-2.1139 3.5625-3.5312 1e-5 -0.70865-2.8538-2.1139-3.5625-3.5312s-0.70866-2.1452 0-3.5625 2.1452-2.8226 3.5625-3.5312c0.70867-0.35433 2.1121-0.53125 3.5312-0.53125z" fill-rule="evenodd" stroke="#000" stroke-width="1.25"/>
 <path d="m56.714 365.49c1.4191 0 2.8538-0.17692 3.5625-0.53125 1.4173-0.70866 2.8226-2.1139 3.5312-3.5312s0.70866-2.1452 0-3.5625-3.5312-2.8226-3.5312-3.5312c2e-5 -1.4173 2.1139-3.5312 3.5312-3.5312h14.156v-42.531h-14.156c-1.4173-1e-5 -3.5312 2.1139-3.5312 3.5312 1e-5 0.70865 2.8226 2.1452 3.5312 3.5625s0.70866 2.1139 0 3.5312-2.1139 2.8538-3.5312 3.5625-5.6764 0.70867-7.0938 0-2.8538-2.1452-3.5625-3.5625-0.70865-2.1139 0-3.5312 3.5625-2.8538 3.5625-3.5625c1e-5 -1.4173-2.1452-3.5313-3.5625-3.5312h-14.156v14.188c0 0.0321-0.02908 0.06096-0.03125 0.09375 0.08853 1.4149 2.1755 3.4375 3.5625 3.4375 0.70866 0 2.1139-2.8226 3.5312-3.5312s2.1452-0.70866 3.5625 0 2.8226 2.1139 3.5312 3.5312 0.70868 5.6764 0 7.0938-2.1139 2.8226-3.5312 3.5312-2.1452 0.70865-3.5625 0-2.8226-3.5313-3.5312-3.5312c-1.3886 0-3.4784 2.0224-3.5625 3.4375 0.00194 0.03094 0.03125 0.06342 0.03125 0.09375v14.188h14.156c1.4173 1e-5 3.5625 2.1139 3.5625 3.5312 1e-5 0.70865-2.8538 2.1139-3.5625 3.5312s-0.70866 2.1452 0 3.5625 2.1452 2.8226 3.5625 3.5312c0.70867 0.35433 2.1121 0.53125 3.5312 0.53125z" fill-rule="evenodd" stroke="#000" stroke-width="1.25"/>
 <path d="m197.9 506.68c0-1.4191 0.17692-2.8538 0.53125-3.5625 0.70866-1.4173 2.1139-2.8226 3.5312-3.5312s2.1452-0.70866 3.5625 0 2.8226 3.5312 3.5312 3.5312c1.4173-2e-5 3.5312-2.1139 3.5312-3.5312v-14.156h42.531v14.156c1e-5 1.4173-2.1139 3.5312-3.5312 3.5312-0.70865-1e-5 -2.1452-2.8226-3.5625-3.5312s-2.1139-0.70866-3.5312 0-2.8538 2.1139-3.5625 3.5312-0.70867 5.6764 0 7.0938 2.1452 2.8538 3.5625 3.5625 2.1139 0.70865 3.5312 0 2.8538-3.5625 3.5625-3.5625c1.4173-1e-5 3.5313 2.1452 3.5312 3.5625v14.156h-14.188c-0.0321 0-0.06096 0.02908-0.09375 0.03125-1.4149-0.08853-3.4375-2.1755-3.4375-3.5625 0-0.70866 2.8226-2.1139 3.5312-3.5312s0.70866-2.1452 0-3.5625-2.1139-2.8226-3.5312-3.5312-5.6764-0.70868-7.0938 0-2.8226 2.1139-3.5312 3.5312-0.70865 2.1452 0 3.5625 3.5313 2.8226 3.5312 3.5312c0 1.3886-2.0224 3.4784-3.4375 3.5625-0.03094-0.00194-0.06342-0.03125-0.09375-0.03125h-14.188v-14.156c-1e-5 -1.4173-2.1139-3.5625-3.5312-3.5625-0.70865-1e-5 -2.1139 2.8538-3.5312 3.5625s-2.1452 0.70866-3.5625 0-2.8226-2.1452-3.5312-3.5625c-0.35433-0.70867-0.53125-2.1121-0.53125-3.5312z" fill-rule="evenodd" stroke="#000" stroke-width="1.25"/>
 <path d="m109.32 595.3c0 1.4191 0.17692 2.8538 0.53125 3.5625 0.70866 1.4173 2.1139 2.8226 3.5312 3.5312s2.1452 0.70866 3.5625 0 2.8226-3.5312 3.5312-3.5312c1.4173 2e-5 3.5312 2.1139 3.5312 3.5312v14.156h42.531v-14.156c1e-5 -1.4173-2.1139-3.5312-3.5312-3.5312-0.70865 1e-5 -2.1452 2.8226-3.5625 3.5312s-2.1139 0.70866-3.5312 0-2.8538-2.1139-3.5625-3.5312-0.70867-5.6764 0-7.0938 2.1452-2.8538 3.5625-3.5625 2.1139-0.70865 3.5312 0 2.8538 3.5625 3.5625 3.5625c1.4173 1e-5 3.5313-2.1452 3.5312-3.5625v-14.156h-14.188c-0.0321 0-0.06096-0.02908-0.09375-0.03125-1.4149 0.08853-3.4375 2.1755-3.4375 3.5625 0 0.70866 2.8226 2.1139 3.5312 3.5312s0.70866 2.1452 0 3.5625-2.1139 2.8226-3.5312 3.5312-5.6764 0.70868-7.0938 0-2.8226-2.1139-3.5312-3.5312-0.70865-2.1452 0-3.5625 3.5313-2.8226 3.5312-3.5312c0-1.3886-2.0224-3.4784-3.4375-3.5625-0.03094 0.00194-0.06342 0.03125-0.09375 0.03125h-14.188v14.156c-1e-5 1.4173-2.1139 3.5625-3.5312 3.5625-0.70865 1e-5 -2.1139-2.8538-3.5312-3.5625s-2.1452-0.70866-3.5625 0-2.8226 2.1452-3.5312 3.5625c-0.35433 0.70867-0.53125 2.1121-0.53125 3.5312z" fill-rule="evenodd" stroke="#000" stroke-width="1.25"/>
 <path d="m698.04 219.69h-14.156c-1.4173-1e-5 -3.5312 2.1139-3.5312 3.5312 0 0.70865 2.8226 2.1452 3.5312 3.5625s0.70866 2.1139 0 3.5312-2.1139 2.8538-3.5312 3.5625-5.6764 0.70867-7.0938 0-2.8538-2.1452-3.5625-3.5625-0.70865-2.1139 0-3.5312 3.5625-2.8538 3.5625-3.5625c0-1.4173-2.1452-3.5313-3.5625-3.5312h-14.156v14.188c-1e-5 0.0321-0.02908 0.06096-0.03125 0.09375 0.08852 1.4149 2.1755 3.4375 3.5625 3.4375 0.70865 0 2.1139-2.8226 3.5312-3.5312s2.1452-0.70866 3.5625 0 2.8226 2.1139 3.5312 3.5312 0.70868 5.6764 0 7.0938-2.1139 2.8226-3.5312 3.5312-2.1452 0.70865-3.5625 0-2.8226-3.5313-3.5312-3.5312c-1.3886 0-3.4784 2.0224-3.5625 3.4375 0.00193 0.03094 0.03125 0.06342 0.03125 0.09375v14.156h14.156c1.4173 0 3.5625-2.1139 3.5625-3.5312 0-0.70864-2.8538-2.1139-3.5625-3.5312s-0.70866-2.1452 0-3.5625 2.1452-2.8226 3.5625-3.5312c0.70866-0.35432 2.1121-0.53125 3.5312-0.53125s2.8538 0.17692 3.5625 0.53125c1.4173 0.70867 2.8226 2.1139 3.5312 3.5312s0.70866 2.1452 0 3.5625-3.5312 2.8226-3.5312 3.5312c1e-5 1.4173 2.1139 3.5312 3.5312 3.5312h14.156v-42.5z" fill-rule="evenodd" stroke="#000" stroke-width="1.25"/>
 <path d="m166.52 350.8v-14.156c1e-5 -1.4173-2.1139-3.5312-3.5312-3.5312-0.70865 0-2.1452 2.8226-3.5625 3.5312s-2.1139 0.70866-3.5312 0-2.8538-2.1139-3.5625-3.5312-0.70867-5.6764 0-7.0938 2.1452-2.8538 3.5625-3.5625 2.1139-0.70865 3.5312 0 2.8538 3.5625 3.5625 3.5625c1.4173 0 3.5313-2.1452 3.5312-3.5625v-14.156h-14.188c-0.0321-1e-5 -0.06096-0.02908-0.09375-0.03125-1.4149 0.08852-3.4375 2.1755-3.4375 3.5625 0 0.70865 2.8226 2.1139 3.5312 3.5312s0.70866 2.1452 0 3.5625-2.1139 2.8226-3.5312 3.5312-5.6764 0.70868-7.0938 0-2.8226-2.1139-3.5312-3.5312-0.70865-2.1452 0-3.5625 3.5313-2.8226 3.5312-3.5312c0-1.3886-2.0224-3.4784-3.4375-3.5625-0.03094 0.00193-0.06342 0.03125-0.09375 0.03125h-14.156v14.156c0 1.4173 2.1139 3.5625 3.5312 3.5625 0.70864 0 2.1139-2.8538 3.5312-3.5625s2.1452-0.70866 3.5625 0 2.8226 2.1452 3.5312 3.5625c0.35432 0.70866 0.53125 2.1121 0.53125 3.5312s-0.17692 2.8538-0.53125 3.5625c-0.70867 1.4173-2.1139 2.8226-3.5312 3.5312s-2.1452 0.70866-3.5625 0-2.8226-3.5312-3.5312-3.5312c-1.4173 1e-5 -3.5312 2.1139-3.5312 3.5312v14.156h42.5z" fill-rule="evenodd" stroke="#000" stroke-width="1.25"/>
 <path d="m478.35 85.02h14.156c1.4173 1e-5 3.5312-2.1139 3.5312-3.5312 0-0.70865-2.8226-2.1452-3.5312-3.5625s-0.70866-2.1139 0-3.5312 2.1139-2.8538 3.5312-3.5625 5.6764-0.70867 7.0938 0 2.8538 2.1452 3.5625 3.5625 0.70865 2.1139 0 3.5312-3.5625 2.8538-3.5625 3.5625c0 1.4173 2.1452 3.5313 3.5625 3.5312h14.156v-14.188c1e-5 -0.0321 0.02908-0.06096 0.03125-0.09375-0.08852-1.4149-2.1755-3.4375-3.5625-3.4375-0.70865 0-2.1139 2.8226-3.5312 3.5312s-2.1452 0.70866-3.5625 0-2.8226-2.1139-3.5312-3.5312-0.70868-5.6764 0-7.0938 2.1139-2.8226 3.5312-3.5312 2.1452-0.70865 3.5625 0 2.8226 3.5313 3.5312 3.5312c1.3886 0 3.4784-2.0224 3.5625-3.4375-0.00193-0.03094-0.03125-0.06342-0.03125-0.09375v-14.156h-14.156c-1.4173 0-3.5625 2.1139-3.5625 3.5312 0 0.70864 2.8538 2.1139 3.5625 3.5312s0.70866 2.1452 0 3.5625-2.1452 2.8226-3.5625 3.5312c-0.70866 0.35432-2.1121 0.53125-3.5312 0.53125s-2.8538-0.17692-3.5625-0.53125c-1.4173-0.70867-2.8226-2.1139-3.5312-3.5312s-0.70866-2.1452 0-3.5625 3.5312-2.8226 3.5312-3.5312c-1e-5 -1.4173-2.1139-3.5312-3.5312-3.5312h-14.156v42.5z" fill-rule="evenodd" stroke="#000" stroke-width="1.25"/>
 <path d="m624.16 595.27c0 1.4173-0.17692 2.8538-0.53125 3.5625-0.70866 1.4173-2.1452 2.8226-3.5625 3.5312s-2.1139 0.70867-3.5312 0-2.8226-3.5312-3.5312-3.5312c-1.4173 0-3.5625 2.1139-3.5625 3.5312v14.188h-14.156c-1.4173 1e-5 -3.5625 2.1139-3.5625 3.5312 0 0.70865 2.8538 2.1139 3.5625 3.5312s0.70866 2.1452 0 3.5625-2.1452 2.8226-3.5625 3.5312-5.6764 0.70866-7.0938 0-2.8226-2.1139-3.5312-3.5312-0.70866-2.1452 0-3.5625 3.5312-2.8226 3.5312-3.5312c-1e-5 -1.4173-2.1139-3.5312-3.5312-3.5312h-14.156v-14.188c-1e-5 -1.4173-2.1452-3.5312-3.5625-3.5312-0.70866 0-2.1139 2.8226-3.5312 3.5312s-2.1452 0.70867-3.5625 0-2.8226-2.1139-3.5312-3.5312-0.70866-5.6764 0-7.0938 2.1139-2.8226 3.5312-3.5312 2.1452-0.70866 3.5625 0 2.8226 3.5312 3.5312 3.5312c1.4173-1e-5 3.5625-2.1139 3.5625-3.5312v-14.188h14.156c1.4173 0 3.5312 2.1139 3.5312 3.5312 0 0.70866-2.8226 2.1452-3.5312 3.5625s-0.70866 2.1139 0 3.5312 2.1139 2.8538 3.5312 3.5625 5.6764 0.70867 7.0938 0 2.8538-2.1452 3.5625-3.5625 0.70865-2.1139 0-3.5312-3.5625-2.8538-3.5625-3.5625c0-1.4173 2.1452-3.5313 3.5625-3.5312h14.156v14.188c0 1.4173 2.1452 3.5312 3.5625 3.5312 0.70866-1e-5 2.1139-2.8226 3.5312-3.5312s2.1139-0.70866 3.5312 0 2.8538 2.1139 3.5625 3.5312c0.35433 0.70865 0.53125 2.1139 0.53125 3.5312z" fill-rule="evenodd" stroke="#000" stroke-width="1.25"/>
 <path d="m411.03 719.83c-1.4173 0-2.8538-0.17692-3.5625-0.53125-1.4173-0.70866-2.8226-2.1452-3.5312-3.5625s-0.70867-2.1139 0-3.5312 3.5312-2.8226 3.5312-3.5312c0-1.4173-2.1139-3.5625-3.5312-3.5625h-14.188v-14.156c-1e-5 -1.4173-2.1139-3.5625-3.5312-3.5625-0.70865 0-2.1139 2.8538-3.5312 3.5625s-2.1452 0.70866-3.5625 0-2.8226-2.1452-3.5312-3.5625-0.70866-5.6764 0-7.0938 2.1139-2.8226 3.5312-3.5312 2.1452-0.70866 3.5625 0 2.8226 3.5312 3.5312 3.5312c1.4173-1e-5 3.5312-2.1139 3.5312-3.5312v-14.156h14.188c1.4173-1e-5 3.5312-2.1452 3.5312-3.5625 0-0.70866-2.8226-2.1139-3.5312-3.5312s-0.70867-2.1452 0-3.5625 2.1139-2.8226 3.5312-3.5312 5.6764-0.70866 7.0938 0 2.8226 2.1139 3.5312 3.5312 0.70866 2.1452 0 3.5625-3.5312 2.8226-3.5312 3.5312c1e-5 1.4173 2.1139 3.5625 3.5312 3.5625h14.188v14.156c0 1.4173-2.1139 3.5312-3.5312 3.5312-0.70866 0-2.1452-2.8226-3.5625-3.5312s-2.1139-0.70866-3.5312 0-2.8538 2.1139-3.5625 3.5312-0.70867 5.6764 0 7.0938 2.1452 2.8538 3.5625 3.5625 2.1139 0.70865 3.5312 0 2.8538-3.5625 3.5625-3.5625c1.4173 0 3.5313 2.1452 3.5312 3.5625v14.156h-14.188c-1.4173 0-3.5312 2.1452-3.5312 3.5625 1e-5 0.70866 2.8226 2.1139 3.5312 3.5312s0.70866 2.1139 0 3.5312-2.1139 2.8538-3.5312 3.5625c-0.70865 0.35433-2.1139 0.53125-3.5312 0.53125z" fill-rule="evenodd" stroke="#000" stroke-width="1.25"/>
 <path d="m552.22 683.86c0-1.4173 0.17692-2.8538 0.53125-3.5625 0.70866-1.4173 2.1452-2.8226 3.5625-3.5312s2.1139-0.70867 3.5312 0 2.8226 3.5312 3.5312 3.5312c1.4173 0 3.5625-2.1139 3.5625-3.5312v-14.188h14.156c1.4173-1e-5 3.5625-2.1139 3.5625-3.5312 0-0.70865-2.8538-2.1139-3.5625-3.5312s-0.70866-2.1452 0-3.5625 2.1452-2.8226 3.5625-3.5312 5.6764-0.70866 7.0938 0 2.8226 2.1139 3.5312 3.5312 0.70866 2.1452 0 3.5625-3.5312 2.8226-3.5312 3.5312c1e-5 1.4173 2.1139 3.5312 3.5312 3.5312h14.156v14.188c1e-5 1.4173 2.1452 3.5312 3.5625 3.5312 0.70866 0 2.1139-2.8226 3.5312-3.5312s2.1452-0.70867 3.5625 0 2.8226 2.1139 3.5312 3.5312 0.70866 5.6764 0 7.0938-2.1139 2.8226-3.5312 3.5312-2.1452 0.70866-3.5625 0-2.8226-3.5312-3.5312-3.5312c-1.4173 1e-5 -3.5625 2.1139-3.5625 3.5312v14.188h-14.156c-1.4173 0-3.5312-2.1139-3.5312-3.5312 0-0.70866 2.8226-2.1452 3.5312-3.5625s0.70866-2.1139 0-3.5312-2.1139-2.8538-3.5312-3.5625-5.6764-0.70867-7.0938 0-2.8538 2.1452-3.5625 3.5625-0.70865 2.1139 0 3.5312 3.5625 2.8538 3.5625 3.5625c0 1.4173-2.1452 3.5313-3.5625 3.5312h-14.156v-14.188c0-1.4173-2.1452-3.5312-3.5625-3.5312-0.70866 1e-5 -2.1139 2.8226-3.5312 3.5312s-2.1139 0.70866-3.5312 0-2.8538-2.1139-3.5625-3.5312c-0.35433-0.70865-0.53125-2.1139-0.53125-3.5312z" fill-rule="evenodd" stroke="#000" stroke-width="1.25"/>
 <path d="m535.6 329.52c0-1.4191-0.17692-2.8226-0.53125-3.5312-0.70866-1.4173-2.1139-2.8226-3.5312-3.5312s-2.1452-0.70866-3.5625 0-2.8226 3.5312-3.5312 3.5312c-1.4173-2e-5 -3.5625-2.1139-3.5625-3.5312v-14.188h-14.156c-1.4173-1e-5 -3.5312 2.1139-3.5312 3.5312 0 0.70865 2.8226 2.1452 3.5312 3.5625s0.70866 2.1139 0 3.5312-2.1139 2.8538-3.5312 3.5625-5.6764 0.70867-7.0938 0-2.8538-2.1452-3.5625-3.5625-0.70865-2.1139 0-3.5312 3.5625-2.8538 3.5625-3.5625c0-1.4173-2.1452-3.5313-3.5625-3.5312h-14.156v14.188c-1e-5 0.0321-0.02908 0.06096-0.03125 0.09375 0.08852 1.4149 2.1755 3.4375 3.5625 3.4375 0.70865 0 2.1139-2.8226 3.5312-3.5312s2.1452-0.70866 3.5625 0 2.8226 2.1139 3.5312 3.5312 0.70868 5.6764 0 7.0938-2.1139 2.8226-3.5312 3.5312-2.1452 0.70865-3.5625 0-2.8226-3.5313-3.5312-3.5312c-1.3886 0-3.4784 2.0224-3.5625 3.4375 0.00193 0.03094 0.03125 0.06342 0.03125 0.09375v14.156h14.156c1.4173 0 3.5625-2.1139 3.5625-3.5312 0-0.70864-2.8538-2.1139-3.5625-3.5312s-0.70866-2.1452 0-3.5625 2.1452-2.8226 3.5625-3.5312c0.70866-0.35432 2.1121-0.53125 3.5312-0.53125s2.8538 0.17692 3.5625 0.53125c1.4173 0.70867 2.8226 2.1139 3.5312 3.5312s0.70866 2.1452 0 3.5625-3.5312 2.8226-3.5312 3.5312c1e-5 1.4173 2.1139 3.5312 3.5312 3.5312h14.156v-14.156c1e-5 -1.4173 2.1452-3.5312 3.5625-3.5312 0.70866-1e-5 2.1139 2.8226 3.5312 3.5312s2.1452 0.70867 3.5625 0 2.8226-2.1139 3.5312-3.5312c0.35433-0.70866 0.53125-2.1434 0.53125-3.5625z" fill-rule="evenodd" stroke="#000" stroke-width="1.25"/>
 <path d="m322.43 365.52c1.4191 0 2.8226-0.17692 3.5312-0.53125 1.4173-0.70866 2.8226-2.1139 3.5312-3.5312s0.70866-2.1452 0-3.5625-3.5312-2.8226-3.5312-3.5312c2e-5 -1.4173 2.1139-3.5625 3.5312-3.5625h14.187v-14.156c1e-5 -1.4173-2.1139-3.5312-3.5312-3.5312-0.70865 0-2.1452 2.8226-3.5625 3.5312s-2.1139 0.70866-3.5312 0-2.8538-2.1139-3.5625-3.5312-0.70867-5.6764 0-7.0938 2.1452-2.8538 3.5625-3.5625 2.1139-0.70865 3.5312 0 2.8538 3.5625 3.5625 3.5625c1.4173 0 3.5313-2.1452 3.5312-3.5625v-14.156h-14.187c-0.0321-1e-5 -0.06096-0.02908-0.09375-0.03125-1.4149 0.08852-3.4375 2.1755-3.4375 3.5625 0 0.70865 2.8226 2.1139 3.5312 3.5312s0.70866 2.1452 0 3.5625-2.1139 2.8226-3.5312 3.5312-5.6764 0.70868-7.0938 0-2.8226-2.1139-3.5313-3.5312-0.70865-2.1452 0-3.5625 3.5313-2.8226 3.5313-3.5312c0-1.3886-2.0224-3.4784-3.4375-3.5625-0.03094 0.00193-0.06342 0.03125-0.09375 0.03125h-14.156v14.156c0 1.4173 2.1139 3.5625 3.5312 3.5625 0.70864 0 2.1139-2.8538 3.5312-3.5625s2.1452-0.70866 3.5625 0 2.8226 2.1452 3.5312 3.5625c0.35433 0.70866 0.53126 2.1121 0.53126 3.5312s-0.17692 2.8538-0.53126 3.5625c-0.70867 1.4173-2.1139 2.8226-3.5312 3.5312s-2.1452 0.70866-3.5625 0-2.8226-3.5312-3.5312-3.5312c-1.4173 1e-5 -3.5312 2.1139-3.5312 3.5312v14.156h14.156c1.4173 1e-5 3.5313 2.1452 3.5313 3.5625 1e-5 0.70866-2.8226 2.1139-3.5313 3.5312s-0.70867 2.1452 0 3.5625 2.1139 2.8226 3.5313 3.5312c0.70866 0.35433 2.1434 0.53125 3.5625 0.53125z" fill-rule="evenodd" stroke="#000" stroke-width="1.25"/>
 <path d="m197.87 595.27c0 1.4191 0.17692 2.8226 0.53125 3.5312 0.70866 1.4173 2.1139 2.8226 3.5312 3.5312s2.1452 0.70866 3.5625 0 2.8226-3.5312 3.5312-3.5312c1.4173 2e-5 3.5625 2.1139 3.5625 3.5312v14.188h14.156c1.4173 1e-5 3.5312-2.1139 3.5312-3.5312 0-0.70865-2.8226-2.1452-3.5312-3.5625s-0.70866-2.1139 0-3.5312 2.1139-2.8538 3.5312-3.5625 5.6764-0.70867 7.0938 0 2.8538 2.1452 3.5625 3.5625 0.70865 2.1139 0 3.5312-3.5625 2.8538-3.5625 3.5625c0 1.4173 2.1452 3.5313 3.5625 3.5312h14.156v-14.188c1e-5 -0.0321 0.02908-0.06096 0.03125-0.09375-0.08852-1.4149-2.1755-3.4375-3.5625-3.4375-0.70865 0-2.1139 2.8226-3.5312 3.5312s-2.1452 0.70866-3.5625 0-2.8226-2.1139-3.5312-3.5312-0.70868-5.6764 0-7.0938 2.1139-2.8226 3.5312-3.5312 2.1452-0.70865 3.5625 0 2.8226 3.5313 3.5312 3.5312c1.3886 0 3.4784-2.0224 3.5625-3.4375-0.00193-0.03094-0.03125-0.06342-0.03125-0.09375v-14.156h-14.156c-1.4173 0-3.5625 2.1139-3.5625 3.5312 0 0.70864 2.8538 2.1139 3.5625 3.5312s0.70866 2.1452 0 3.5625-2.1452 2.8226-3.5625 3.5312c-0.70866 0.35432-2.1121 0.53125-3.5312 0.53125s-2.8538-0.17692-3.5625-0.53125c-1.4173-0.70867-2.8226-2.1139-3.5312-3.5312s-0.70866-2.1452 0-3.5625 3.5312-2.8226 3.5312-3.5312c-1e-5 -1.4173-2.1139-3.5312-3.5312-3.5312h-14.156v14.156c-1e-5 1.4173-2.1452 3.5312-3.5625 3.5312-0.70866 1e-5 -2.1139-2.8226-3.5312-3.5312s-2.1452-0.70867-3.5625 0-2.8226 2.1139-3.5312 3.5312c-0.35433 0.70866-0.53125 2.1434-0.53125 3.5625z" fill-rule="evenodd" stroke="#000" stroke-width="1.25"/>
 <path d="m535.58 595.27c0-1.4173-0.17692-2.8226-0.53125-3.5312-0.70866-1.4173-2.1452-2.8226-3.5625-3.5312s-2.1139-0.70864-3.5312 0-2.8226 3.5312-3.5312 3.5312c-1.4173 0-3.5625-2.1139-3.5625-3.5312v-14.188h-14.156c-1.4173-1e-5 -3.5625 2.1139-3.5625 3.5312 0 0.70866 2.8538 2.1452 3.5625 3.5625s0.70866 2.1139 0 3.5312-2.1452 2.8538-3.5625 3.5625-5.6764 0.70867-7.0938 0-2.8226-2.1452-3.5312-3.5625-0.70866-2.1139 0-3.5312 3.5312-2.8538 3.5312-3.5625c-1e-5 -1.4173-2.1139-3.5312-3.5312-3.5312h-14.156v14.188c0 1.4173-2.1452 3.5312-3.5625 3.5312-0.70866 0-2.1139-2.8226-3.5312-3.5312s-2.1452-0.70864-3.5625 0-2.8226 2.1139-3.5312 3.5312-0.70866 5.6764 0 7.0938 2.1139 2.8226 3.5312 3.5312 2.1452 0.70867 3.5625 0 2.8226-3.5312 3.5312-3.5312c1.4173 0 3.5625 2.1139 3.5625 3.5312v14.156h14.156c1.4173 0 3.5312-2.1139 3.5312-3.5312 0-0.70866-2.8226-2.1139-3.5312-3.5312s-0.70866-2.1452 0-3.5625 2.1139-2.8226 3.5312-3.5312 5.6764-0.70866 7.0938 0 2.8538 2.1139 3.5625 3.5312 0.70865 2.1452 0 3.5625-3.5625 2.8226-3.5625 3.5312c0 1.4173 2.1452 3.5312 3.5625 3.5312h14.156v-14.156c0-1.4173 2.1452-3.5312 3.5625-3.5312 0.70867 0 2.1139 2.8226 3.5312 3.5312s2.1139 0.70867 3.5312 0 2.8538-2.1139 3.5625-3.5312c0.35433-0.70866 0.53125-2.1452 0.53125-3.5625z" fill-rule="evenodd" stroke="#000" stroke-width="1.25"/>
 <path d="m624.15 329.55c0 1.4191-0.17692 2.8538-0.53125 3.5625-0.70866 1.4173-2.1139 2.8226-3.5312 3.5312s-2.1452 0.70866-3.5625 0-2.8226-3.5312-3.5312-3.5312c-1.4173 2e-5 -3.5312 2.1139-3.5312 3.5312v14.156h-14.188c-1.4173 2e-5 -3.5312 2.1452-3.5312 3.5625-1e-5 0.70867 2.8226 2.1139 3.5312 3.5312s0.70867 2.1452 0 3.5625-2.1139 2.8226-3.5312 3.5312-5.6764 0.70866-7.0938 0-2.8226-2.1139-3.5312-3.5312-0.70866-2.1452 0-3.5625 3.5312-2.8226 3.5312-3.5312c-2e-5 -1.4173-2.1139-3.5625-3.5312-3.5625h-14.188v-14.156c-1e-5 -1.4173 2.1139-3.5312 3.5312-3.5312 0.70865 1e-5 2.1452 2.8226 3.5625 3.5312s2.1139 0.70866 3.5312 0 2.8538-2.1139 3.5625-3.5312 0.70867-5.6764 0-7.0938-2.1452-2.8538-3.5625-3.5625-2.1139-0.70865-3.5312 0-2.8538 3.5625-3.5625 3.5625c-1.4173 1e-5 -3.5313-2.1452-3.5312-3.5625v-14.156h14.188c0.0321 0 0.06096-0.02908 0.09375-0.03125 1.4149 0.08853 3.4375 2.1755 3.4375 3.5625 0 0.70866-2.8226 2.1139-3.5312 3.5312s-0.70866 2.1452 0 3.5625 2.1139 2.8226 3.5312 3.5312 5.6764 0.70868 7.0938 0 2.8226-2.1139 3.5312-3.5312 0.70865-2.1452 0-3.5625-3.5313-2.8226-3.5312-3.5312c0-1.3886 2.0224-3.4784 3.4375-3.5625 0.03094 0.00194 0.06342 0.03125 0.09375 0.03125h14.188v14.156c1e-5 1.4173 2.1139 3.5625 3.5312 3.5625 0.70865 1e-5 2.1139-2.8538 3.5312-3.5625s2.1452-0.70866 3.5625 0 2.8226 2.1452 3.5312 3.5625c0.35433 0.70867 0.53125 2.1121 0.53125 3.5312z" fill-rule="evenodd" stroke="#000" stroke-width="1.25"/>
 <path d="m322.42 631.23c-1.4191 0-2.8538-0.17692-3.5625-0.53125-1.4173-0.70866-2.8226-2.1139-3.5312-3.5312s-0.70866-2.1452 0-3.5625 3.5312-2.8226 3.5312-3.5312c-2e-5 -1.4173-2.1139-3.5312-3.5312-3.5312h-14.156v-14.188c-2e-5 -1.4173-2.1452-3.5312-3.5625-3.5312-0.70867-1e-5 -2.1139 2.8226-3.5312 3.5312s-2.1452 0.70867-3.5625 0-2.8226-2.1139-3.5312-3.5312-0.70866-5.6764 0-7.0938 2.1139-2.8226 3.5312-3.5312 2.1452-0.70866 3.5625 0 2.8226 3.5312 3.5312 3.5312c1.4173-2e-5 3.5625-2.1139 3.5625-3.5312v-14.188h14.156c1.4173-1e-5 3.5312 2.1139 3.5312 3.5312-1e-5 0.70865-2.8226 2.1452-3.5312 3.5625s-0.70866 2.1139 0 3.5312 2.1139 2.8538 3.5312 3.5625 5.6764 0.70867 7.0938 0 2.8538-2.1452 3.5625-3.5625 0.70865-2.1139 0-3.5312-3.5625-2.8538-3.5625-3.5625c-1e-5 -1.4173 2.1452-3.5313 3.5625-3.5312h14.156v14.188c0 0.0321 0.02908 0.06096 0.03125 0.09375-0.08853 1.4149-2.1755 3.4375-3.5625 3.4375-0.70866 0-2.1139-2.8226-3.5312-3.5312s-2.1452-0.70866-3.5625 0-2.8226 2.1139-3.5312 3.5312-0.70868 5.6764 0 7.0938 2.1139 2.8226 3.5312 3.5312 2.1452 0.70865 3.5625 0 2.8226-3.5313 3.5312-3.5312c1.3886 0 3.4784 2.0224 3.5625 3.4375-0.00194 0.03094-0.03125 0.06342-0.03125 0.09375v14.188h-14.156c-1.4173 1e-5 -3.5625 2.1139-3.5625 3.5312-1e-5 0.70865 2.8538 2.1139 3.5625 3.5312s0.70866 2.1452 0 3.5625-2.1452 2.8226-3.5625 3.5312c-0.70867 0.35433-2.1121 0.53125-3.5312 0.53125z" fill-rule="evenodd" stroke="#000" stroke-width="1.25"/>
 <path d="m286.48 683.84c0-1.4191 0.17692-2.8538 0.53125-3.5625 0.70866-1.4173 2.1139-2.8226 3.5312-3.5312s2.1452-0.70866 3.5625 0 2.8226 3.5312 3.5312 3.5312c1.4173-2e-5 3.5312-2.1139 3.5312-3.5312v-14.156h14.188c1.4173-2e-5 3.5312-2.1452 3.5312-3.5625 1e-5 -0.70867-2.8226-2.1139-3.5312-3.5312s-0.70867-2.1452 0-3.5625 2.1139-2.8226 3.5312-3.5312 5.6764-0.70866 7.0938 0 2.8226 2.1139 3.5312 3.5312 0.70866 2.1452 0 3.5625-3.5312 2.8226-3.5312 3.5312c2e-5 1.4173 2.1139 3.5625 3.5312 3.5625h14.188v14.156c1e-5 1.4173-2.1139 3.5312-3.5312 3.5312-0.70865-1e-5 -2.1452-2.8226-3.5625-3.5312s-2.1139-0.70866-3.5312 0-2.8538 2.1139-3.5625 3.5312-0.70867 5.6764 0 7.0938 2.1452 2.8538 3.5625 3.5625 2.1139 0.70865 3.5312 0 2.8538-3.5625 3.5625-3.5625c1.4173-1e-5 3.5313 2.1452 3.5312 3.5625v14.156h-14.188c-0.0321 0-0.06096 0.02908-0.09375 0.03125-1.4149-0.08853-3.4375-2.1755-3.4375-3.5625 0-0.70866 2.8226-2.1139 3.5312-3.5312s0.70866-2.1452 0-3.5625-2.1139-2.8226-3.5312-3.5312-5.6764-0.70868-7.0938 0-2.8226 2.1139-3.5312 3.5312-0.70865 2.1452 0 3.5625 3.5313 2.8226 3.5312 3.5312c0 1.3886-2.0224 3.4784-3.4375 3.5625-0.03094-0.00194-0.06342-0.03125-0.09375-0.03125h-14.188v-14.156c-1e-5 -1.4173-2.1139-3.5625-3.5312-3.5625-0.70865-1e-5 -2.1139 2.8538-3.5312 3.5625s-2.1452 0.70866-3.5625 0-2.8226-2.1452-3.5312-3.5625c-0.35433-0.70867-0.53125-2.1121-0.53125-3.5312z" fill-rule="evenodd" stroke="#000" stroke-width="1.25"/>
 <path d="m92.652 152.35c0-1.4191-0.17692-2.8226-0.53125-3.5312-0.70866-1.4173-2.1139-2.8226-3.5312-3.5312s-2.1452-0.70866-3.5625 0-2.8226 3.5312-3.5312 3.5312c-1.4173-2e-5 -3.5625-2.1139-3.5625-3.5312v-14.188h-14.156c-1.4173-1e-5 -3.5312 2.1139-3.5312 3.5312 0 0.70865 2.8226 2.1452 3.5312 3.5625s0.70866 2.1139 0 3.5312-2.1139 2.8538-3.5312 3.5625-5.6764 0.70867-7.0938 0-2.8538-2.1452-3.5625-3.5625-0.70865-2.1139 0-3.5312 3.5625-2.8538 3.5625-3.5625c0-1.4173-2.1452-3.5313-3.5625-3.5312h-14.156v42.5h14.156c1.4173 0 3.5625-2.1139 3.5625-3.5312 0-0.70864-2.8538-2.1139-3.5625-3.5312s-0.70866-2.1452 0-3.5625 2.1452-2.8226 3.5625-3.5312c0.70866-0.35432 2.1121-0.53125 3.5312-0.53125s2.8538 0.17692 3.5625 0.53125c1.4173 0.70867 2.8226 2.1139 3.5312 3.5312s0.70866 2.1452 0 3.5625-3.5312 2.8226-3.5312 3.5312c1e-5 1.4173 2.1139 3.5312 3.5312 3.5312h14.156v-14.156c1e-5 -1.4173 2.1452-3.5312 3.5625-3.5312 0.70866-1e-5 2.1139 2.8226 3.5312 3.5312s2.1452 0.70867 3.5625 0 2.8226-2.1139 3.5312-3.5312c0.35433-0.70866 0.53125-2.1434 0.53125-3.5625z" fill-rule="evenodd" stroke="#000" stroke-width="1.25"/>
 <path d="m233.85 382.15c-1.4191 0-2.8226 0.17692-3.5312 0.53125-1.4173 0.70866-2.8226 2.1139-3.5312 3.5312s-0.70866 2.1452 0 3.5625 3.5312 2.8226 3.5312 3.5312c-2e-5 1.4173-2.1139 3.5625-3.5312 3.5625h-14.188v14.156c-1e-5 1.4173 2.1139 3.5312 3.5312 3.5312 0.70865 0 2.1452-2.8226 3.5625-3.5312s2.1139-0.70866 3.5312 0 2.8538 2.1139 3.5625 3.5312 0.70867 5.6764 0 7.0938-2.1452 2.8538-3.5625 3.5625-2.1139 0.70865-3.5312 0-2.8538-3.5625-3.5625-3.5625c-1.4173 0-3.5313 2.1452-3.5312 3.5625v14.156h42.5v-14.156c0-1.4173-2.1139-3.5625-3.5312-3.5625-0.70864 0-2.1139 2.8538-3.5312 3.5625s-2.1452 0.70866-3.5625 0-2.8226-2.1452-3.5312-3.5625c-0.35432-0.70866-0.53125-2.1121-0.53125-3.5312s0.17692-2.8538 0.53125-3.5625c0.70867-1.4173 2.1139-2.8226 3.5312-3.5312s2.1452-0.70866 3.5625 0 2.8226 3.5312 3.5312 3.5312c1.4173-1e-5 3.5312-2.1139 3.5312-3.5312v-14.156h-14.156c-1.4173-1e-5 -3.5312-2.1452-3.5312-3.5625-1e-5 -0.70866 2.8226-2.1139 3.5312-3.5312s0.70867-2.1452 0-3.5625-2.1139-2.8226-3.5312-3.5312c-0.70866-0.35433-2.1434-0.53125-3.5625-0.53125z" fill-rule="evenodd" stroke="#000" stroke-width="1.25"/>
 <path d="m322.43 276.9c-1.4191 0-2.8226-0.17692-3.5312-0.53125-1.4173-0.70866-2.8226-2.1139-3.5312-3.5312s-0.70866-2.1452 0-3.5625 3.5312-2.8226 3.5312-3.5312c-2e-5 -1.4173-2.1139-3.5625-3.5312-3.5625h-14.188v-14.156c-1e-5 -1.4173 2.1139-3.5312 3.5312-3.5312 0.70865 0 2.1452 2.8226 3.5625 3.5312s2.1139 0.70866 3.5312 0 2.8538-2.1139 3.5625-3.5312 0.70867-5.6764 0-7.0938-2.1452-2.8538-3.5625-3.5625-2.1139-0.70865-3.5312 0-2.8538 3.5625-3.5625 3.5625c-1.4173 0-3.5313-2.1452-3.5312-3.5625v-14.156h42.5v14.156c0 1.4173-2.1139 3.5625-3.5312 3.5625-0.70864 0-2.1139-2.8538-3.5312-3.5625s-2.1452-0.70866-3.5625 0-2.8226 2.1452-3.5312 3.5625c-0.35432 0.70866-0.53125 2.1121-0.53125 3.5312s0.17692 2.8538 0.53125 3.5625c0.70867 1.4173 2.1139 2.8226 3.5312 3.5312s2.1452 0.70866 3.5625 0 2.8226-3.5312 3.5312-3.5312c1.4173 1e-5 3.5312 2.1139 3.5312 3.5312v14.156h-14.156c-1.4173 1e-5 -3.5312 2.1452-3.5312 3.5625-1e-5 0.70866 2.8226 2.1139 3.5312 3.5312s0.70867 2.1452 0 3.5625-2.1139 2.8226-3.5312 3.5312c-0.70866 0.35433-2.1434 0.53125-3.5625 0.53125z" fill-rule="evenodd" stroke="#000" stroke-width="1.25"/>
 <path d="m640.81 506.68c0-1.4191 0.17692-2.8226 0.53125-3.5312 0.70866-1.4173 2.1139-2.8226 3.5312-3.5312s2.1452-0.70866 3.5625 0 2.8226 3.5312 3.5312 3.5312c1.4173-2e-5 3.5625-2.1139 3.5625-3.5312v-14.188h14.156c1.4173-1e-5 3.5312 2.1139 3.5312 3.5312 0 0.70865-2.8226 2.1452-3.5312 3.5625s-0.70866 2.1139 0 3.5312 2.1139 2.8538 3.5312 3.5625 5.6764 0.70867 7.0938 0 2.8538-2.1452 3.5625-3.5625 0.70865-2.1139 0-3.5312-3.5625-2.8538-3.5625-3.5625c0-1.4173 2.1452-3.5313 3.5625-3.5312h14.156v42.5h-14.156c-1.4173 0-3.5625-2.1139-3.5625-3.5312 0-0.70864 2.8538-2.1139 3.5625-3.5312s0.70866-2.1452 0-3.5625-2.1452-2.8226-3.5625-3.5312c-0.70866-0.35432-2.1121-0.53125-3.5312-0.53125s-2.8538 0.17692-3.5625 0.53125c-1.4173 0.70867-2.8226 2.1139-3.5312 3.5312s-0.70866 2.1452 0 3.5625 3.5312 2.8226 3.5312 3.5312c-1e-5 1.4173-2.1139 3.5312-3.5312 3.5312h-14.156v-14.156c-1e-5 -1.4173-2.1452-3.5312-3.5625-3.5312-0.70866-1e-5 -2.1139 2.8226-3.5312 3.5312s-2.1452 0.70867-3.5625 0-2.8226-2.1139-3.5312-3.5312c-0.35433-0.70866-0.53125-2.1434-0.53125-3.5625z" fill-rule="evenodd" stroke="#000" stroke-width="1.25"/>
 <path d="m181.23 152.35c0 1.4173-0.17692 2.8538-0.53125 3.5625-0.70866 1.4173-2.1452 2.8226-3.5625 3.5312s-2.1139 0.70867-3.5312 0-2.8226-3.5312-3.5312-3.5312c-1.4173 0-3.5625 2.1139-3.5625 3.5312v14.188h-14.156c-1.4173 1e-5 -3.5625 2.1139-3.5625 3.5312 0 0.70865 2.8538 2.1139 3.5625 3.5312s0.70866 2.1452 0 3.5625-2.1452 2.8226-3.5625 3.5312-5.6764 0.70866-7.0938 0-2.8226-2.1139-3.5312-3.5312-0.70866-2.1452 0-3.5625 3.5312-2.8226 3.5312-3.5312c-1e-5 -1.4173-2.1139-3.5312-3.5312-3.5312h-14.156v-42.531h14.156c1.4173 0 3.5312 2.1139 3.5312 3.5312 0 0.70866-2.8226 2.1452-3.5312 3.5625s-0.70866 2.1139 0 3.5312 2.1139 2.8538 3.5312 3.5625 5.6764 0.70867 7.0938 0 2.8538-2.1452 3.5625-3.5625 0.70865-2.1139 0-3.5312-3.5625-2.8538-3.5625-3.5625c0-1.4173 2.1452-3.5313 3.5625-3.5312h14.156v14.188c0 1.4173 2.1452 3.5312 3.5625 3.5312 0.70866-1e-5 2.1139-2.8226 3.5312-3.5312s2.1139-0.70866 3.5312 0 2.8538 2.1139 3.5625 3.5312c0.35433 0.70865 0.53125 2.1139 0.53125 3.5312z" fill-rule="evenodd" stroke="#000" stroke-width="1.25"/>
 <path d="m624.15 152.37c0-1.4173-0.17692-2.8538-0.53125-3.5625-0.70866-1.4173-2.1452-2.8226-3.5625-3.5312s-2.1139-0.70867-3.5312 0-2.8226 3.5312-3.5312 3.5312c-1.4173 0-3.5625-2.1139-3.5625-3.5312v-14.188h-14.156c-1.4173-1e-5 -3.5625-2.1139-3.5625-3.5312 0-0.70865 2.8538-2.1139 3.5625-3.5312s0.70866-2.1452 0-3.5625-2.1452-2.8226-3.5625-3.5312-5.6764-0.70866-7.0937 0-2.8226 2.1139-3.5312 3.5312-0.70866 2.1452 0 3.5625 3.5312 2.8226 3.5312 3.5312c-1e-5 1.4173-2.1139 3.5312-3.5312 3.5312h-14.156v42.531h14.156c1.4173 0 3.5312-2.1139 3.5312-3.5312 0-0.70866-2.8226-2.1452-3.5312-3.5625s-0.70866-2.1139 0-3.5312 2.1139-2.8538 3.5312-3.5625 5.6764-0.70867 7.0937 0 2.8538 2.1452 3.5625 3.5625 0.70865 2.1139 0 3.5312-3.5625 2.8538-3.5625 3.5625c0 1.4173 2.1452 3.5313 3.5625 3.5312h14.156v-14.188c0-1.4173 2.1452-3.5312 3.5625-3.5312 0.70866 1e-5 2.1139 2.8226 3.5312 3.5312s2.1139 0.70866 3.5312 0 2.8538-2.1139 3.5625-3.5312c0.35433-0.70865 0.53125-2.1139 0.53125-3.5312z" fill-rule="evenodd" stroke="#000" stroke-width="1.25"/>
 <path d="m499.6 276.9c1.4173 0 2.8538-0.17692 3.5625-0.53125 1.4173-0.70866 2.8226-2.1452 3.5312-3.5625s0.70867-2.1139 0-3.5312-3.5312-2.8226-3.5312-3.5312c0-1.4173 2.1139-3.5625 3.5312-3.5625h14.188v-14.156c1e-5 -1.4173 2.1139-3.5625 3.5312-3.5625 0.70865 0 2.1139 2.8538 3.5312 3.5625s2.1452 0.70866 3.5625 0 2.8226-2.1452 3.5312-3.5625 0.70866-5.6764 0-7.0938-2.1139-2.8226-3.5312-3.5312-2.1452-0.70866-3.5625 0-2.8226 3.5312-3.5312 3.5312c-1.4173-1e-5 -3.5312-2.1139-3.5312-3.5312v-14.156h-42.531v14.156c0 1.4173 2.1139 3.5312 3.5312 3.5312 0.70866 0 2.1452-2.8226 3.5625-3.5312s2.1139-0.70866 3.5312 0 2.8538 2.1139 3.5625 3.5312 0.70867 5.6764 0 7.0938-2.1452 2.8538-3.5625 3.5625-2.1139 0.70865-3.5312 0-2.8538-3.5625-3.5625-3.5625c-1.4173 0-3.5313 2.1452-3.5312 3.5625v14.156h14.188c1.4173 0 3.5312 2.1452 3.5312 3.5625-1e-5 0.70866-2.8226 2.1139-3.5312 3.5312s-0.70866 2.1139 0 3.5312 2.1139 2.8538 3.5312 3.5625c0.70865 0.35433 2.1139 0.53125 3.5312 0.53125z" fill-rule="evenodd" stroke="#000" stroke-width="1.25"/>
 <path d="m499.6 382.15c1.4173 0 2.8538 0.17692 3.5625 0.53125 1.4173 0.70866 2.8226 2.1452 3.5312 3.5625s0.70867 2.1139 0 3.5312-3.5312 2.8226-3.5312 3.5312c0 1.4173 2.1139 3.5625 3.5312 3.5625h14.188v14.156c1e-5 1.4173 2.1139 3.5625 3.5312 3.5625 0.70865 0 2.1139-2.8538 3.5312-3.5625s2.1452-0.70866 3.5625 0 2.8226 2.1452 3.5312 3.5625 0.70866 5.6764 0 7.0938-2.1139 2.8226-3.5312 3.5312-2.1452 0.70866-3.5625 0-2.8226-3.5312-3.5312-3.5312c-1.4173 1e-5 -3.5312 2.1139-3.5312 3.5312v14.156h-42.531v-14.156c0-1.4173 2.1139-3.5312 3.5312-3.5312 0.70866 0 2.1452 2.8226 3.5625 3.5312s2.1139 0.70866 3.5312 0 2.8538-2.1139 3.5625-3.5312 0.70867-5.6764 0-7.0938-2.1452-2.8538-3.5625-3.5625-2.1139-0.70865-3.5312 0-2.8538 3.5625-3.5625 3.5625c-1.4173 0-3.5313-2.1452-3.5312-3.5625v-14.156h14.188c1.4173 0 3.5312-2.1452 3.5312-3.5625-1e-5 -0.70866-2.8226-2.1139-3.5312-3.5312s-0.70866-2.1139 0-3.5312 2.1139-2.8538 3.5312-3.5625c0.70865-0.35433 2.1139-0.53125 3.5312-0.53125z" fill-rule="evenodd" stroke="#000" stroke-width="1.25"/>
 <path d="m322.45 542.65c-1.4173 0-2.8538-0.17692-3.5625-0.53125-1.4173-0.70866-2.8226-2.1452-3.5312-3.5625s-0.70867-2.1139 0-3.5312 3.5312-2.8226 3.5312-3.5312c0-1.4173-2.1139-3.5625-3.5312-3.5625h-14.188v-14.156c-1e-5 -1.4173-2.1139-3.5625-3.5312-3.5625-0.70865 0-2.1139 2.8538-3.5312 3.5625s-2.1452 0.70866-3.5625 0-2.8226-2.1452-3.5312-3.5625-0.70866-5.6764 0-7.0938 2.1139-2.8226 3.5312-3.5312 2.1452-0.70866 3.5625 0 2.8226 3.5312 3.5312 3.5312c1.4173-1e-5 3.5312-2.1139 3.5312-3.5312v-14.156h42.531v14.156c0 1.4173-2.1139 3.5312-3.5312 3.5312-0.70866 0-2.1452-2.8226-3.5625-3.5312s-2.1139-0.70866-3.5312 0-2.8538 2.1139-3.5625 3.5312-0.70867 5.6764 0 7.0938 2.1452 2.8538 3.5625 3.5625 2.1139 0.70865 3.5312 0 2.8538-3.5625 3.5625-3.5625c1.4173 0 3.5313 2.1452 3.5312 3.5625v14.156h-14.188c-1.4173 0-3.5312 2.1452-3.5312 3.5625 1e-5 0.70866 2.8226 2.1139 3.5312 3.5312s0.70866 2.1139 0 3.5312-2.1139 2.8538-3.5312 3.5625c-0.70865 0.35433-2.1139 0.53125-3.5312 0.53125z" fill-rule="evenodd" stroke="#000" stroke-width="1.25"/>
 <path d="m20.734 595.27c0 1.4173 0.17692 2.8538 0.53125 3.5625 0.70866 1.4173 2.1452 2.8226 3.5625 3.5312s2.1139 0.70867 3.5312 0 2.8226-3.5312 3.5312-3.5312c1.4173 0 3.5625 2.1139 3.5625 3.5312v14.188h14.156c1.4173 1e-5 3.5625 2.1139 3.5625 3.5312 0 0.70865-2.8538 2.1139-3.5625 3.5312s-0.70866 2.1452 0 3.5625 2.1452 2.8226 3.5625 3.5312 5.6764 0.70866 7.0938 0 2.8226-2.1139 3.5312-3.5312 0.70866-2.1452 0-3.5625-3.5312-2.8226-3.5312-3.5312c1e-5 -1.4173 2.1139-3.5312 3.5312-3.5312h14.156v-42.531h-14.156c-1.4173 0-3.5312 2.1139-3.5312 3.5312 0 0.70866 2.8226 2.1452 3.5312 3.5625s0.70866 2.1139 0 3.5312-2.1139 2.8538-3.5312 3.5625-5.6764 0.70867-7.0938 0-2.8538-2.1452-3.5625-3.5625-0.70865-2.1139 0-3.5312 3.5625-2.8538 3.5625-3.5625c0-1.4173-2.1452-3.5313-3.5625-3.5312h-14.156v14.188c0 1.4173-2.1452 3.5312-3.5625 3.5312-0.70866-1e-5 -2.1139-2.8226-3.5312-3.5312s-2.1139-0.70866-3.5312 0-2.8538 2.1139-3.5625 3.5312c-0.35433 0.70865-0.53125 2.1139-0.53125 3.5312z" fill-rule="evenodd" stroke="#000" stroke-width="1.25"/>
 <path d="m20.734 683.86c0-1.4173 0.17692-2.8538 0.53125-3.5625 0.70866-1.4173 2.1452-2.8226 3.5625-3.5312s2.1139-0.70867 3.5312 0 2.8226 3.5312 3.5312 3.5312c1.4173 0 3.5625-2.1139 3.5625-3.5312v-14.188h14.156c1.4173-1e-5 3.5625-2.1139 3.5625-3.5312 0-0.70865-2.8538-2.1139-3.5625-3.5312s-0.70866-2.1452 0-3.5625 2.1452-2.8226 3.5625-3.5312 5.6764-0.70866 7.0938 0 2.8226 2.1139 3.5312 3.5312 0.70866 2.1452 0 3.5625-3.5312 2.8226-3.5312 3.5312c1e-5 1.4173 2.1139 3.5312 3.5312 3.5312h14.156v42.531h-14.156c-1.4173 0-3.5312-2.1139-3.5312-3.5312 0-0.70866 2.8226-2.1452 3.5312-3.5625s0.70866-2.1139 0-3.5312-2.1139-2.8538-3.5312-3.5625-5.6764-0.70867-7.0938 0-2.8538 2.1452-3.5625 3.5625-0.70865 2.1139 0 3.5312 3.5625 2.8538 3.5625 3.5625c0 1.4173-2.1452 3.5313-3.5625 3.5312h-14.156v-14.188c0-1.4173-2.1452-3.5312-3.5625-3.5312-0.70866 1e-5 -2.1139 2.8226-3.5312 3.5312s-2.1139 0.70866-3.5312 0-2.8538-2.1139-3.5625-3.5312c-0.35433-0.70865-0.53125-2.1139-0.53125-3.5312z" fill-rule="evenodd" stroke="#000" stroke-width="1.25"/>
 <path d="m233.86 647.9c-1.4173 0-2.8538 0.17692-3.5625 0.53125-1.4173 0.70866-2.8226 2.1452-3.5312 3.5625s-0.70867 2.1139 0 3.5312 3.5312 2.8226 3.5312 3.5312c0 1.4173-2.1139 3.5625-3.5312 3.5625h-14.188v14.156c-1e-5 1.4173-2.1139 3.5625-3.5312 3.5625-0.70865 0-2.1139-2.8538-3.5312-3.5625s-2.1452-0.70866-3.5625 0-2.8226 2.1452-3.5312 3.5625-0.70866 5.6764 0 7.0938 2.1139 2.8226 3.5312 3.5312 2.1452 0.70866 3.5625 0 2.8226-3.5312 3.5312-3.5312c1.4173 1e-5 3.5312 2.1139 3.5312 3.5312v14.156h42.531v-14.156c0-1.4173-2.1139-3.5312-3.5312-3.5312-0.70866 0-2.1452 2.8226-3.5625 3.5312s-2.1139 0.70866-3.5312 0-2.8538-2.1139-3.5625-3.5312-0.70867-5.6764 0-7.0938 2.1452-2.8538 3.5625-3.5625 2.1139-0.70865 3.5312 0 2.8538 3.5625 3.5625 3.5625c1.4173 0 3.5313-2.1452 3.5312-3.5625v-14.156h-14.188c-1.4173 0-3.5312-2.1452-3.5312-3.5625 1e-5 -0.70866 2.8226-2.1139 3.5312-3.5312s0.70866-2.1139 0-3.5312-2.1139-2.8538-3.5312-3.5625c-0.70865-0.35433-2.1139-0.53125-3.5312-0.53125z" fill-rule="evenodd" stroke="#000" stroke-width="1.25"/>
</svg>
